<?xml version="1.0" standalone="no"?>
<!DOCTYPE svg PUBLIC "-//W3C//DTD SVG 20010904//EN"
 "http://www.w3.org/TR/2001/REC-SVG-20010904/DTD/svg10.dtd">
<svg version="1.0" xmlns="http://www.w3.org/2000/svg"
 width="175" height="175" viewBox="0 0 1024.000000 1024.000000"
 preserveAspectRatio="xMidYMid meet">

<g transform="translate(0.000000,1024.000000) scale(0.100000,-0.100000)"
fill="#000000" stroke="none">
<path d="M6446 8979 c-108 -17 -243 -121 -336 -262 -101 -152 -220 -435 -306
-727 -20 -69 -40 -128 -44 -133 -6 -7 -153 -19 -385 -32 -66 -4 -136 -8 -155
-10 -19 -2 -132 -8 -250 -15 -118 -6 -235 -12 -260 -15 -25 -2 -110 -7 -190
-11 -80 -3 -149 -9 -154 -12 -6 -3 -33 -5 -60 -3 -28 1 -121 -3 -206 -8 -85
-6 -195 -13 -245 -16 -362 -22 -626 -37 -850 -50 -143 -8 -289 -17 -325 -20
-36 -3 -110 -7 -165 -10 -394 -19 -679 -37 -732 -46 -94 -17 -180 -64 -219
-122 -19 -27 -38 -65 -44 -85 -13 -46 -13 -165 0 -307 10 -112 66 -1060 95
-1590 34 -643 56 -989 65 -1036 27 -139 92 -213 258 -291 142 -67 744 -327
907 -393 288 -116 355 -117 1105 -30 162 19 399 46 525 60 290 32 870 99 1080
125 88 11 266 31 395 45 129 14 256 27 282 30 55 6 65 -5 75 -84 12 -107 -42
-211 -129 -246 -27 -11 -144 -28 -318 -46 -257 -28 -482 -55 -1485 -179 -448
-55 -753 -93 -1180 -145 -159 -19 -402 -48 -538 -65 -324 -39 -399 -66 -447
-161 -46 -89 -39 -189 19 -265 l38 -51 -23 -39 c-36 -59 -74 -188 -81 -275
-12 -163 50 -332 163 -441 37 -37 82 -69 204 -146 136 -85 318 -79 485 16 98
56 240 196 282 280 l29 56 54 -4 c30 -3 103 -5 163 -5 59 0 107 -3 107 -6 0
-3 -12 -16 -26 -30 -39 -36 -108 -146 -139 -218 -112 -269 -73 -546 104 -729
107 -112 294 -221 425 -249 95 -20 243 -10 349 24 269 85 487 341 512 603 3
36 8 76 11 88 3 13 1 21 -3 19 -4 -3 -7 20 -6 51 3 65 -5 114 -17 107 -4 -2
-15 15 -24 38 -18 49 -20 61 -7 53 5 -4 7 3 4 15 -4 16 -8 17 -14 7 -7 -10 -9
-10 -9 0 0 7 -13 18 -30 23 -16 6 -28 14 -25 19 7 11 -54 92 -65 85 -5 -3 -12
0 -16 6 -5 8 -3 9 6 4 9 -6 11 -4 6 4 -5 7 -15 10 -23 7 -8 -3 -12 -2 -9 3 3
5 -2 15 -11 22 -14 12 -16 12 -8 -1 7 -12 6 -13 -6 -4 -8 6 -26 11 -41 10 -14
-1 -26 1 -26 4 4 21 -16 35 -50 34 -20 0 -49 3 -64 7 -17 5 -28 3 -31 -4 -3
-9 -10 -9 -26 0 -28 17 -34 16 -27 -4 6 -14 3 -14 -15 3 -21 17 -22 17 -16 1
5 -13 3 -16 -5 -10 -17 10 -48 11 -54 2 -2 -5 -16 -4 -29 1 -17 6 -25 6 -25
-1 0 -6 -4 -7 -10 -4 -5 3 -10 13 -10 21 0 17 31 19 49 2 11 -11 12 -10 6 1
-6 11 -3 13 13 9 14 -4 19 -2 15 8 -3 9 2 12 16 9 12 -2 21 0 21 5 0 5 9 7 20
5 11 -2 20 2 20 8 0 8 3 8 8 2 4 -5 41 -10 82 -11 64 -1 118 -7 128 -15 1 -1
5 -2 10 -3 32 -8 105 -56 141 -94 l44 -47 -35 45 c-44 56 -132 128 -205 168
-55 29 -56 30 -27 36 64 12 321 48 524 71 118 14 269 36 335 50 163 33 193 33
241 -6 22 -17 61 -42 87 -55 26 -14 57 -36 69 -49 12 -13 43 -32 71 -41 67
-22 222 -22 307 0 115 30 274 157 327 262 32 63 32 63 208 89 61 9 118 19 128
22 14 3 4 -16 -31 -67 -198 -281 -187 -660 26 -869 55 -54 92 -79 207 -137
156 -79 228 -104 304 -104 64 0 195 26 236 47 52 27 179 120 213 157 111 119
196 277 194 358 0 16 3 26 8 23 5 -3 8 9 8 27 0 18 0 71 0 118 1 104 -1 143
-9 150 -3 3 -10 21 -15 40 -6 19 -16 34 -22 32 -7 -1 -12 2 -12 8 0 5 4 10 9
10 11 0 0 23 -42 87 -30 47 -47 59 -21 16 15 -26 15 -27 0 -8 -9 11 -26 33
-38 48 -12 15 -28 25 -35 22 -8 -2 -12 -1 -9 4 7 10 -42 33 -55 26 -5 -4 -6 2
-2 12 6 15 4 16 -8 6 -9 -7 -20 -8 -28 -3 -8 4 -20 6 -28 3 -7 -3 -13 0 -13 7
0 6 -5 8 -12 3 -20 -12 -38 -12 -38 -1 0 6 -8 7 -17 3 -10 -4 -31 -8 -47 -11
-42 -5 -66 -14 -66 -25 0 -5 -7 -9 -15 -9 -8 0 -15 5 -15 11 0 5 -5 7 -10 4
-6 -4 -7 -11 -3 -18 3 -6 -11 0 -33 13 l-39 24 20 -24 c11 -13 14 -20 7 -16
-7 4 -20 2 -28 -5 -12 -10 -13 -9 -7 7 6 17 5 17 -10 6 -8 -8 -13 -21 -11 -30
5 -15 4 -15 -6 0 -6 10 -18 15 -28 12 -13 -5 -14 -4 -3 4 11 8 11 10 0 15 -10
4 -9 6 3 6 9 1 19 -5 22 -11 3 -7 3 1 1 17 -3 17 -3 25 1 18 3 -7 12 -9 20 -6
7 3 12 9 9 13 -3 5 3 9 12 9 37 1 53 5 53 11 0 4 24 10 53 13 28 3 63 9 77 12
14 3 59 6 100 7 76 1 117 -11 165 -51 12 -10 11 -5 -5 12 -14 16 -51 44 -83
64 -32 19 -56 37 -54 39 2 3 50 11 106 20 135 20 231 54 313 110 72 49 151
130 142 145 -3 5 -1 9 5 9 15 0 46 66 61 129 9 36 15 49 21 40 6 -9 9 3 9 34
0 27 4 56 9 66 15 28 26 221 13 221 -6 0 -9 -7 -6 -15 4 -8 1 -15 -5 -15 -15
0 -14 23 1 38 9 9 7 12 -11 12 -12 0 -19 4 -16 10 3 5 0 10 -7 10 -7 1 -2 7
12 16 25 15 25 15 1 8 -17 -4 -21 -3 -16 6 5 7 4 11 -1 8 -5 -3 -17 3 -26 13
-14 15 -14 18 -2 23 19 7 18 41 -3 57 -11 10 -14 10 -9 1 4 -7 2 -12 -4 -12
-6 0 -8 -5 -4 -11 5 -8 1 -8 -13 0 -11 6 -24 7 -29 3 -5 -4 -2 1 5 11 14 18
26 24 16 7 -3 -5 -1 -10 4 -10 6 0 11 7 11 15 0 8 -9 15 -20 15 -12 0 -17 5
-14 14 3 8 0 17 -7 22 -8 5 -10 3 -4 -7 5 -8 -6 -2 -25 12 -19 14 -36 32 -38
40 -3 8 8 3 24 -11 l28 -25 -25 31 c-13 17 -25 27 -27 23 -2 -4 -10 -5 -18 -2
-7 3 -11 10 -7 17 4 6 -6 3 -21 -8 -16 -10 -25 -13 -22 -7 7 10 -6 16 -27 12
-5 -1 -6 3 -3 8 4 5 2 13 -4 16 -6 4 -8 16 -5 28 5 19 5 20 -5 5 -6 -10 -16
-18 -22 -18 -7 0 -7 4 1 13 8 11 5 17 -17 27 -31 15 -63 14 -75 -4 -5 -6 -5 0
-1 14 6 23 6 24 -11 10 -17 -14 -18 -13 -12 3 4 11 3 16 -3 12 -6 -3 -10 -1
-10 4 0 6 -19 11 -41 11 -36 0 -40 2 -29 15 11 13 10 14 -5 9 -13 -5 -16 -4
-11 5 4 6 4 11 -1 10 -11 -3 -65 23 -81 38 -8 7 -17 11 -21 9 -4 -3 -8 1 -8 8
0 7 12 13 30 13 16 0 32 4 35 9 11 15 126 20 145 7 17 -13 67 -33 67 -28 0 3
-21 16 -47 29 -92 47 -93 50 -26 74 111 41 223 142 227 206 0 13 5 22 9 19 5
-3 8 3 7 13 -4 36 0 65 8 60 4 -3 7 13 6 34 -1 26 3 41 13 44 9 4 12 13 8 25
-3 11 -2 22 4 25 5 3 8 14 6 24 -1 9 2 23 8 30 6 8 5 17 -4 29 -8 9 -9 14 -4
11 7 -4 16 24 24 75 7 45 17 87 22 93 7 8 6 14 -3 16 -10 4 -11 10 -1 29 13
26 24 62 29 94 2 11 7 36 10 55 4 19 7 47 7 63 0 15 3 27 6 27 4 0 7 8 8 18 0
9 4 35 8 57 4 22 6 50 6 63 0 12 4 22 10 22 7 0 9 10 5 25 -4 14 -2 25 3 25 8
0 27 97 24 128 0 6 3 12 8 12 5 0 9 23 9 50 0 29 5 50 11 50 6 0 8 8 4 19 -3
11 -1 22 4 26 6 3 10 16 10 28 0 12 2 33 5 47 19 86 22 120 12 124 -6 2 -4 5
5 5 11 1 16 9 15 24 -1 12 1 27 5 32 3 6 9 39 13 74 3 35 11 69 16 76 6 7 11
32 12 56 0 24 5 46 9 49 4 3 9 23 11 45 2 22 7 46 12 53 4 7 4 21 1 32 -4 11
-2 20 4 20 6 0 11 21 11 48 0 26 5 53 12 60 7 7 8 12 4 12 -5 0 -4 6 2 13 5 6
13 37 16 68 3 31 15 83 25 116 10 33 19 76 19 96 0 19 3 41 7 47 14 23 35 133
29 153 -3 11 -2 17 3 14 13 -8 14 35 1 50 -8 11 -7 12 7 6 14 -5 17 -3 12 10
-3 9 -2 19 4 23 6 3 8 12 5 19 -2 7 -2 16 2 19 7 8 10 27 14 79 1 20 6 37 11
37 4 0 7 8 6 18 -1 9 -1 19 0 22 1 3 4 25 7 50 2 24 9 49 14 54 6 6 10 25 10
42 0 18 5 36 10 39 6 3 10 12 10 18 0 7 -4 6 -10 -3 -5 -8 -10 -10 -10 -4 0 6
6 17 14 23 12 10 27 78 27 126 0 10 5 25 10 32 6 6 8 17 4 23 -4 6 -1 17 5 25
7 8 10 22 6 30 -3 8 -1 15 3 15 5 0 12 7 15 16 4 9 2 13 -5 8 -6 -3 -4 4 4 17
8 13 18 39 22 57 4 18 13 46 21 62 9 16 16 39 17 50 1 11 4 20 7 20 3 0 12 16
19 35 7 19 16 35 20 35 5 0 29 -9 54 -20 131 -58 301 -23 420 88 55 52 110
126 100 136 -4 3 -1 6 6 6 8 0 11 8 8 20 -3 11 -1 18 4 14 5 -3 9 6 9 20 0 13
-6 27 -12 29 -10 4 -10 6 0 6 6 1 12 14 12 30 0 17 4 32 8 35 9 6 8 50 -1 54
-4 2 -13 1 -20 -2 -9 -5 -9 -7 1 -12 6 -3 12 -11 12 -17 -1 -7 -9 -2 -19 10
-10 12 -21 20 -23 18 -3 -3 -5 2 -5 10 0 8 6 16 13 19 8 3 11 0 7 -10 -8 -21
5 -17 17 5 8 17 7 19 -9 16 -21 -4 -36 33 -26 65 3 10 1 21 -4 25 -7 4 -9 -1
-5 -12 5 -17 5 -17 -9 0 -15 18 -32 24 -22 7 3 -6 -1 -7 -10 -3 -12 4 -13 8
-4 13 8 6 6 14 -10 31 -20 21 -21 22 -16 4 5 -13 0 -9 -13 9 -19 27 -20 28
-27 7 -5 -17 -10 -19 -26 -11 -10 6 -18 14 -18 18 3 21 -3 31 -16 26 -8 -3
-13 -9 -12 -12 1 -4 -2 -7 -8 -7 -5 0 -9 5 -9 12 1 6 -5 9 -12 6 -8 -3 -11
-10 -7 -16 3 -6 1 -7 -5 -3 -12 7 -52 -10 -64 -28 -4 -6 -2 -14 5 -18 8 -5 6
-8 -5 -8 -21 0 -21 1 -7 34 7 14 17 23 23 19 6 -3 7 -2 3 2 -10 12 -39 16 -32
5 9 -15 -7 -41 -23 -35 -13 5 -13 3 -1 -12 12 -15 12 -16 -4 -10 -11 4 -20 1
-23 -8 -5 -11 -11 -12 -25 -4 -10 5 -19 7 -19 3 0 -4 -9 1 -20 11 -11 10 -20
22 -20 27 0 5 7 2 16 -6 8 -9 18 -16 22 -16 3 0 1 5 -6 12 -7 7 -12 20 -12 30
0 17 2 17 24 3 23 -16 24 -15 19 4 -3 12 -9 18 -14 15 -5 -3 -9 -1 -9 5 0 6
-8 8 -17 5 -15 -5 -15 -4 -3 4 8 6 18 8 22 6 4 -3 8 2 8 11 0 9 5 13 10 10 6
-3 10 -1 10 4 0 6 7 11 16 11 12 0 15 6 11 21 -4 17 -3 18 9 8 12 -10 13 -9 7
7 -6 17 -5 18 12 4 17 -14 18 -14 6 8 -6 12 -7 22 -2 22 5 0 11 -4 13 -9 2 -5
10 -2 18 7 13 14 12 15 -2 9 -9 -3 -18 -1 -21 6 -5 17 -108 -6 -174 -39 -75
-38 -170 -121 -233 -204 -30 -39 -62 -81 -70 -92 -15 -19 -21 -20 -155 -9 -77
6 -187 15 -245 21 -358 36 -843 83 -1075 105 -267 24 -403 42 -417 55 -5 3 9
5 30 4 20 -2 27 0 15 2 -16 4 -23 13 -23 30 0 13 -5 24 -11 24 -5 0 -7 5 -4
10 3 6 1 10 -5 10 -6 0 -8 5 -5 10 3 6 -2 10 -12 11 -16 0 -16 1 2 9 16 7 17
9 3 9 -9 1 -20 10 -23 21 -4 11 -11 18 -16 15 -5 -4 -9 -3 -9 2 0 4 -20 17
-44 27 -25 11 -43 23 -40 27 2 4 0 11 -6 14 -6 4 -9 1 -8 -6 2 -6 -3 -14 -11
-17 -8 -2 -11 0 -7 6 7 12 -20 10 -31 -3 -4 -4 -2 -5 5 -1 7 4 12 1 12 -8 0
-8 -7 -13 -17 -11 -10 2 -22 4 -27 4 -5 1 -3 7 3 15 7 9 8 17 3 20 -6 3 -13
-5 -16 -19 -4 -14 -13 -25 -21 -25 -9 0 -12 -6 -8 -17 3 -10 2 -15 -2 -11 -5
5 -15 -2 -23 -14 l-15 -21 -22 27 c-15 18 -25 24 -29 17 -4 -6 -1 -14 8 -17 8
-3 12 -13 9 -22 -4 -14 -3 -15 6 -2 8 12 10 11 8 -7 -1 -21 -16 -26 -28 -10
-3 5 -13 -3 -23 -17 -17 -26 -10 -36 11 -15 8 8 16 8 30 -1 17 -11 17 -11 -1
-6 -11 4 -26 0 -36 -9 -18 -16 -37 -5 -25 14 3 5 1 12 -5 16 -5 3 -10 1 -10
-4 0 -6 -4 -11 -8 -11 -4 0 -8 9 -8 20 0 18 2 19 24 4 19 -12 23 -13 20 -2 -3
7 1 18 8 23 10 7 11 14 3 25 -9 13 -10 13 -6 -2 3 -9 -1 -19 -9 -22 -8 -3 -14
-1 -14 5 0 6 -5 7 -11 4 -13 -8 12 37 26 48 6 4 5 10 -4 16 -11 7 -11 9 0 13
8 3 19 -2 24 -9 11 -15 14 -5 16 55 1 22 2 22 15 5 12 -17 13 -16 9 5 -4 21
-2 22 12 10 12 -9 15 -9 9 -1 -4 7 -2 21 3 30 6 10 11 14 11 10 0 -4 10 -2 23
5 12 7 25 11 30 10 4 -1 7 2 7 7 0 14 -31 18 -84 10z m-80 -311 c4 -6 3 -8 -4
-4 -5 3 -13 0 -15 -6 -3 -8 -6 -6 -6 5 -1 19 14 23 25 5z m2678 -90 c4 3 4 -1
1 -10 -5 -13 -2 -16 12 -14 13 3 19 -2 19 -16 0 -17 -2 -18 -12 -3 -8 11 -14
13 -19 5 -4 -6 -16 -8 -28 -4 -19 6 -20 5 -8 -10 9 -10 10 -16 2 -16 -6 0 -11
6 -11 13 0 9 -3 8 -9 -2 -5 -7 -11 -9 -14 -4 -4 6 5 16 18 23 25 14 33 30 15
30 -5 0 -10 5 -10 10 0 7 6 7 19 1 10 -6 21 -7 25 -3z m71 -16 c-3 -3 -11 0
-18 7 -9 10 -8 11 6 5 10 -3 15 -9 12 -12z m-140 -12 c3 -6 -1 -7 -9 -4 -18 7
-21 14 -7 14 6 0 13 -4 16 -10z m31 -68 c0 -11 -8 -19 -21 -20 -16 -1 -17 1
-5 8 8 5 11 10 5 10 -7 0 7 14 20 20 1 0 1 -8 1 -18z m24 -36 c0 -3 -4 -8 -10
-11 -5 -3 -10 -1 -10 4 0 6 5 11 10 11 6 0 10 -2 10 -4z m0 -41 c0 -2 -9 -3
-19 -2 -11 0 -18 5 -15 9 4 6 34 0 34 -7z m138 5 c3 -3 19 -7 35 -9 9 -1 9 -3
-2 -10 -10 -7 -11 -13 -2 -30 13 -24 17 -25 27 -9 4 7 3 8 -4 4 -8 -4 -12 0
-12 10 0 14 3 15 12 6 16 -16 18 -62 4 -64 -32 -4 -42 -2 -55 10 -12 11 -16
11 -23 0 -7 -9 -8 -8 -4 6 5 13 2 17 -9 12 -9 -3 -15 0 -15 9 0 8 -6 13 -12
11 -7 -1 -10 -1 -5 1 4 3 5 9 1 14 -6 11 8 12 22 2 5 -5 1 0 -9 10 -16 14 -17
17 -3 17 9 0 16 4 16 9 0 8 28 8 38 1z m-213 -20 c3 -5 2 -10 -4 -10 -5 0 -13
5 -16 10 -3 6 -2 10 4 10 5 0 13 -4 16 -10z m-48 -55 c0 -8 -4 -12 -9 -9 -5 3
-6 10 -3 15 9 13 12 11 12 -6z m398 -14 c3 -5 2 -12 -3 -15 -5 -3 -9 1 -9 9 0
17 3 19 12 6z m-2930 -37 c38 -15 130 -15 230 1 26 4 189 -12 445 -44 623 -77
966 -118 1190 -143 113 -12 206 -23 208 -24 2 -1 -20 -69 -47 -150 -68 -202
-125 -449 -359 -1571 -21 -101 -35 -183 -31 -183 5 0 15 -13 24 -30 28 -53 16
-264 -17 -296 -15 -16 -54 -22 -158 -28 -36 -2 -106 -7 -156 -11 -77 -6 -98
-4 -129 10 -26 13 -33 20 -23 26 8 6 9 9 1 9 -29 0 -31 74 -20 560 1 41 6 78
12 82 6 5 7 8 0 8 -8 0 -12 72 -6 100 1 6 11 394 14 540 1 89 -1 110 -18 135
-11 17 -25 33 -31 37 -7 5 -10 18 -6 30 4 16 2 19 -8 13 -9 -6 -11 -4 -5 5 10
16 -12 30 -52 30 -17 0 -34 4 -38 9 -3 6 -13 9 -23 9 -20 0 -104 9 -217 23
-44 6 -93 12 -110 14 -113 12 -174 26 -109 25 16 0 90 3 164 6 139 6 484 -8
625 -25 44 -6 129 -15 189 -21 178 -18 230 -57 244 -182 l7 -63 24 135 c33
194 36 240 18 277 -26 50 -76 67 -189 65 -90 -3 -310 21 -728 78 -80 11 -215
29 -300 40 -85 11 -271 36 -413 55 -143 19 -301 35 -353 35 -59 0 -94 4 -94
11 0 30 152 370 182 407 13 15 18 15 63 -4z m2505 -50 c0 -8 -19 -13 -24 -6
-3 5 1 9 9 9 8 0 15 -2 15 -3z m-85 -284 c3 -6 -1 -7 -9 -4 -18 7 -21 14 -7
14 6 0 13 -4 16 -10z m-2610 -123 c23 -2 31 -7 33 -24 2 -13 -2 -23 -8 -23 -6
0 -8 -4 -5 -10 3 -5 1 -10 -4 -10 -20 0 -26 -2 -38 -12 -7 -5 -18 -6 -24 -2
-9 5 -10 2 -6 -9 6 -16 5 -16 -18 -1 -14 9 -25 12 -25 6 0 -6 8 -16 18 -21 9
-6 12 -11 7 -11 -6 0 -16 5 -23 12 -7 7 -12 9 -12 5 0 -4 -9 -3 -20 3 -12 6
-20 7 -20 1 0 -5 6 -12 13 -15 6 -3 1 -3 -12 0 -17 5 -21 3 -16 -6 5 -9 4 -11
-4 -6 -6 4 -9 12 -6 17 4 5 1 9 -4 9 -6 0 -11 -4 -11 -10 0 -5 -7 -7 -15 -4
-8 4 -15 1 -15 -6 0 -8 -6 -9 -17 -5 -32 13 -81 12 -76 -1 2 -7 -1 -15 -8 -20
-7 -4 -10 -3 -5 4 3 6 2 13 -4 17 -5 3 -10 1 -10 -6 0 -8 -4 -8 -13 -1 -7 6
-23 10 -35 9 -21 -1 -26 -9 -23 -32 1 -5 -5 -2 -12 7 -11 14 -16 15 -27 5 -8
-7 -10 -8 -7 -1 4 7 -3 12 -18 12 -14 0 -22 -5 -18 -11 4 -6 1 -7 -8 -1 -19
12 -42 11 -51 -1 -5 -6 -8 -6 -8 2 0 12 -37 6 -57 -10 -9 -6 -13 -6 -13 1 0 7
-16 11 -35 10 -28 -1 -33 -4 -23 -15 9 -11 6 -12 -16 -3 -33 12 -39 13 -32 1
7 -11 -34 -2 -50 10 -7 5 -11 3 -11 -6 0 -14 11 -19 30 -16 5 1 6 -3 2 -9 -5
-7 -17 -5 -38 7 -41 24 -72 24 -71 0 2 -14 -1 -15 -11 -7 -10 8 -19 8 -35 0
-18 -9 -25 -8 -42 7 -21 18 -21 18 -9 -4 8 -16 8 -24 -1 -29 -7 -5 -8 -3 -3 6
6 10 4 12 -8 7 -11 -4 -14 -2 -10 9 3 7 0 14 -6 14 -6 0 -11 -5 -11 -11 0 -6
-9 -9 -20 -6 -11 3 -20 0 -20 -5 0 -6 -6 -5 -15 2 -8 7 -15 9 -15 4 0 -14 -70
-14 -70 -1 0 8 -3 8 -8 2 -4 -5 -14 -10 -22 -10 -8 0 -18 5 -22 10 -5 6 -8 5
-8 -2 0 -7 -9 -13 -21 -13 -15 0 -19 -5 -15 -16 3 -9 2 -12 -4 -9 -6 4 -9 14
-8 22 2 9 -3 18 -11 21 -10 3 -12 0 -8 -11 3 -9 -1 -17 -11 -19 -24 -7 -43 2
-35 15 4 7 0 6 -10 -1 -9 -8 -25 -11 -38 -7 -14 5 -25 2 -30 -6 -6 -10 -9 -11
-9 -1 0 6 -5 12 -11 12 -6 0 -8 -7 -4 -17 5 -15 4 -16 -6 -5 -18 17 -32 15
-25 -4 3 -8 2 -12 -4 -9 -6 3 -10 13 -10 21 0 8 -5 14 -11 14 -5 0 -8 -4 -5
-9 3 -5 -1 -11 -9 -15 -8 -3 -15 0 -15 7 0 7 -8 3 -17 -8 -15 -19 -15 -19 -9
10 4 20 4 25 -3 16 -5 -8 -16 -11 -25 -8 -9 4 -16 2 -16 -4 0 -6 -7 -9 -15 -5
-18 7 -20 -10 -2 -18 6 -3 -1 -2 -17 1 -20 4 -27 2 -22 -5 5 -8 1 -10 -9 -6
-11 5 -14 2 -9 -12 5 -16 4 -16 -5 -4 -8 12 -6 18 9 29 33 22 23 32 -12 11
-24 -14 -36 -16 -51 -8 -14 7 -17 7 -13 -1 5 -7 1 -9 -8 -5 -9 3 -16 10 -16
15 0 5 -7 9 -15 9 -8 0 -15 -5 -15 -11 0 -5 5 -7 12 -3 7 4 8 3 4 -5 -6 -9
-11 -9 -22 0 -11 9 -18 9 -26 1 -15 -15 -32 -16 -23 -2 4 6 -1 7 -11 3 -14 -5
-13 -8 7 -24 13 -10 19 -19 12 -19 -6 0 -15 5 -18 11 -4 6 -14 8 -22 5 -8 -3
-11 -1 -8 4 3 6 2 10 -4 10 -5 0 -18 3 -28 6 -16 6 -16 5 2 -10 20 -17 20 -17
-5 -10 -14 4 -28 12 -32 18 -4 6 -8 7 -8 1 0 -5 -5 -4 -11 2 -13 13 -42 6 -33
-8 5 -9 0 -11 -28 -13 -7 -1 -16 -5 -20 -11 -4 -6 -8 -2 -8 8 0 10 -4 16 -8
13 -4 -2 -14 -1 -22 4 -10 6 -19 1 -32 -18 -10 -15 -18 -21 -18 -14 0 6 -9 12
-21 12 -14 0 -19 5 -16 13 3 8 -1 14 -9 14 -8 0 -14 -4 -14 -9 0 -4 -3 -7 -7
-6 -5 1 -17 -3 -29 -9 -17 -10 -25 -9 -42 3 -12 8 -22 11 -22 5 0 -5 8 -15 18
-20 9 -6 12 -11 5 -11 -6 0 -14 4 -18 10 -3 5 -13 7 -23 4 -13 -5 -14 -4 -3 4
8 6 9 12 3 16 -5 3 -12 0 -15 -7 -3 -9 -21 -13 -53 -11 -38 3 -44 1 -26 -6 12
-5 22 -12 22 -14 0 -7 -32 5 -48 17 -9 7 -16 7 -20 1 -9 -13 -105 -13 -115 0
-5 7 -7 4 -3 -6 7 -22 2 -23 -18 -2 -14 14 -16 14 -16 0 0 -8 8 -20 18 -25 15
-10 15 -10 -3 -8 -11 2 -29 8 -39 14 -16 8 -25 7 -45 -6 -14 -9 -22 -11 -19
-6 3 6 0 16 -8 23 -8 7 -14 8 -14 3 0 -6 -7 -7 -17 -4 -11 4 -14 3 -9 -5 4 -7
1 -12 -8 -12 -8 0 -18 5 -21 10 -13 21 -26 10 -14 -12 9 -20 7 -19 -15 5 -15
15 -29 27 -32 27 -2 0 3 -12 13 -27 l17 -28 -33 30 c-18 17 -32 26 -31 20 8
-39 -15 -46 -57 -17 -15 9 -24 12 -20 5 6 -9 -10 -11 -65 -9 -40 2 -66 1 -56
-1 9 -2 19 -11 22 -19 4 -12 0 -11 -27 3 -17 9 -40 17 -50 18 -16 2 -16 1 0
-18 17 -19 17 -20 -4 -8 -28 14 -36 14 -27 -1 5 -7 3 -8 -5 -3 -7 4 -35 9 -61
11 -42 2 -48 0 -43 -14 4 -10 -3 -7 -15 8 -14 15 -20 18 -16 8 3 -9 1 -25 -6
-35 -10 -17 -11 -17 -6 2 4 14 -3 26 -22 39 -15 11 -21 13 -14 6 17 -19 15
-31 -3 -24 -8 4 -15 1 -15 -6 0 -7 -8 -9 -21 -5 -16 6 -20 4 -14 -6 5 -8 -1
-5 -13 5 -12 11 -22 14 -22 9 0 -6 -11 -10 -24 -9 -13 0 -22 5 -18 10 3 5 0 6
-6 2 -18 -11 -72 -14 -72 -3 0 5 -7 4 -15 -3 -9 -7 -18 -10 -21 -7 -3 3 -17 2
-30 -3 -14 -6 -26 -6 -29 1 -4 5 -11 6 -17 3 -6 -4 -5 -10 3 -15 10 -6 10 -9
2 -9 -6 0 -15 5 -18 10 -3 6 -11 10 -16 10 -6 0 -7 -5 -3 -12 5 -8 2 -9 -9 -5
-10 4 -21 -1 -27 -11 -11 -15 -11 -15 -6 2 5 13 2 17 -8 13 -7 -3 -19 0 -26 6
-10 9 -11 9 -5 -2 6 -11 3 -13 -13 -9 -13 4 -27 -1 -37 -12 -9 -10 -22 -17
-28 -15 -41 10 -57 19 -57 31 0 8 -8 14 -17 13 -11 0 -13 -3 -5 -6 23 -9 12
-23 -14 -17 -19 5 -25 4 -20 -5 11 -18 -5 -13 -21 7 -8 9 -12 11 -8 5 4 -9 -1
-13 -15 -13 -14 0 -19 -4 -14 -12 6 -10 4 -10 -7 0 -16 14 -63 17 -54 2 3 -5
2 -10 -4 -10 -5 0 -12 6 -15 13 -3 8 -9 6 -20 -7 -14 -17 -16 -18 -16 -3 0 9
-4 17 -10 17 -5 0 -7 -7 -3 -16 5 -13 3 -15 -13 -7 -10 6 -25 8 -32 6 -19 -7
-44 5 -37 17 5 8 12 7 23 -2 15 -12 16 -11 3 5 -9 12 -17 14 -26 7 -6 -5 -15
-6 -19 -2 -4 4 -6 0 -4 -8 2 -8 -3 -14 -10 -12 -8 1 -11 -2 -7 -8 3 -6 11 -8
16 -5 5 4 17 1 26 -5 15 -9 14 -10 -6 -4 -15 4 -21 2 -17 -4 7 -11 -12 -11
-31 1 -9 6 -11 3 -7 -10 5 -16 5 -17 -5 -1 -7 9 -20 15 -31 13 -11 -2 -18 0
-15 5 3 5 14 7 23 5 11 -2 24 6 31 18 11 18 11 20 0 10 -7 -7 -20 -13 -29 -13
-12 0 -13 2 -1 9 11 7 10 11 -6 22 -18 11 -19 14 -7 27 8 7 12 17 9 22 -3 5 8
18 25 30 16 12 30 18 30 14 0 -3 8 0 17 7 14 12 14 10 -2 -16 l-18 -30 26 29
c25 26 32 27 28 2 -1 -5 4 -4 12 3 12 9 16 9 20 -1 3 -8 6 -6 6 6 1 15 4 16
16 6 16 -14 35 -6 35 16 0 8 9 14 20 14 11 0 19 -3 19 -7 -3 -20 2 -27 11 -13
7 12 11 10 19 -10 6 -16 10 -19 10 -9 1 10 10 17 24 17 12 1 37 4 56 8 21 4
32 3 28 -3 -3 -5 0 -10 8 -10 8 0 12 4 9 9 -6 9 52 2 69 -9 6 -3 7 -1 3 5 -4
6 1 11 11 11 10 0 37 3 61 7 28 4 48 2 58 -6 12 -11 13 -10 9 2 -8 20 62 19
75 -2 8 -12 10 -12 11 5 0 19 1 19 8 1 7 -19 8 -19 15 -1 6 16 9 17 16 5 7
-11 10 -11 10 -2 0 8 15 12 48 12 26 -1 58 0 72 2 14 3 35 1 48 -4 12 -4 22
-4 22 1 0 13 49 20 55 7 3 -8 7 -7 11 1 4 8 13 9 29 3 12 -5 26 -6 30 -2 4 4
19 8 33 9 15 1 42 4 60 7 21 3 32 1 32 -7 0 -7 4 -6 10 3 9 13 10 13 10 0 0
-10 3 -11 8 -4 4 6 22 10 40 9 17 -1 32 3 32 8 0 5 7 4 15 -3 10 -9 15 -9 15
-1 0 6 5 11 11 11 5 0 7 -4 4 -10 -3 -5 -2 -10 4 -10 5 0 12 6 14 13 4 9 8 8
16 -3 8 -12 11 -12 11 -1 0 8 7 11 19 8 10 -2 26 0 35 5 10 6 16 5 16 -2 0 -7
6 -8 18 -1 13 7 23 6 32 -2 10 -10 12 -9 7 4 -3 9 0 16 9 16 8 0 14 -4 14 -9
0 -4 7 -8 16 -8 8 0 13 3 11 8 -3 4 43 7 101 6 59 -1 112 2 117 6 16 13 215
17 215 5 0 -6 3 -6 8 1 4 7 53 14 115 17 59 4 112 9 117 12 6 4 10 1 10 -5 0
-6 5 -8 12 -4 12 7 117 15 255 18 35 0 63 3 63 6 0 3 44 5 97 6 184 2 232 7
220 23 -10 12 -8 13 8 7 11 -4 25 -8 30 -9 6 -1 13 -6 17 -12 5 -7 8 -7 8 0 0
6 33 10 78 10 42 0 109 5 148 11 39 6 103 10 142 10 40 -1 74 4 76 9 3 6 9 3
15 -5 6 -9 11 -10 11 -3 0 7 13 10 38 7 20 -2 32 -1 25 4 -7 4 34 8 90 8 56 1
145 4 197 7 52 4 149 9 215 13 66 3 138 9 160 13 22 4 63 5 90 3 28 -2 64 -4
80 -5z m-365 -131 c0 -3 -4 -8 -10 -11 -5 -3 -10 -1 -10 4 0 6 5 11 10 11 6 0
10 -2 10 -4z m-270 -25 c0 -5 8 -12 18 -14 14 -4 14 -5 1 -6 -9 0 -22 6 -29
14 -9 10 -9 15 -1 15 6 0 11 -4 11 -9z m-184 -14 c4 -4 2 -7 -5 -7 -7 0 -9 -4
-6 -10 3 -5 0 -7 -9 -4 -23 9 -29 34 -6 31 11 -2 23 -6 26 -10z m-3176 -61
c-7 -7 -14 -6 -21 1 -9 9 -7 12 9 10 14 -1 18 -5 12 -11z m-130 -6 c0 -5 -4
-10 -10 -10 -5 0 -10 5 -10 10 0 6 5 10 10 10 6 0 10 -4 10 -10z m1944 -22
c-3 -4 -12 -8 -20 -8 -8 0 -13 4 -10 8 3 5 12 9 20 9 8 0 13 -4 10 -9z m117
-5 c13 -16 12 -17 -3 -4 -10 7 -18 15 -18 17 0 8 8 3 21 -13z m-401 -27 c0 -9
-30 -14 -35 -6 -4 6 3 10 14 10 12 0 21 -2 21 -4z m-490 -20 c0 -3 -4 -8 -10
-11 -5 -3 -10 -1 -10 4 0 6 5 11 10 11 6 0 10 -2 10 -4z m5485 -14 c-3 -3 -11
0 -18 7 -9 10 -8 11 6 5 10 -3 15 -9 12 -12z m-5725 -8 c0 -2 -7 -4 -15 -4 -8
0 -15 4 -15 10 0 5 7 7 15 4 8 -4 15 -8 15 -10z m135 6 c3 -5 2 -10 -4 -10 -5
0 -13 5 -16 10 -3 6 -2 10 4 10 5 0 13 -4 16 -10z m2833 -48 l-3 -49 188 -22
c104 -12 232 -33 285 -47 155 -40 206 -78 222 -165 14 -75 -7 -1092 -25 -1192
-26 -149 -78 -253 -141 -283 -19 -9 -32 -19 -29 -23 2 -4 -9 -7 -25 -6 -17 1
-30 -1 -30 -5 0 -15 -109 0 -148 20 -49 25 -123 102 -150 156 -22 43 -39 101
-46 155 -3 19 -5 34 -6 34 -1 0 -3 10 -4 23 -2 12 2 22 8 22 6 0 5 4 -2 9 -12
7 -12 277 2 946 2 105 2 103 -54 172 -6 7 -10 22 -10 35 0 28 -43 50 -95 50
-19 0 -35 3 -35 7 0 3 -10 7 -22 8 -69 6 -86 9 -82 14 4 7 -73 23 -196 39 -47
7 -107 15 -134 18 -27 4 -47 12 -45 17 2 6 13 9 24 7 20 -3 20 -3 0 12 -25 18
-17 26 34 33 40 6 41 5 41 -26 0 -17 1 -31 3 -31 43 -1 283 -38 402 -61 239
-47 297 -73 330 -151 13 -32 15 -112 16 -555 1 -285 4 -529 8 -543 6 -20 18
-28 71 -42 36 -9 66 -21 68 -27 2 -6 8 -9 13 -5 5 3 9 0 9 -6 0 -6 5 -8 10 -5
6 4 8 11 5 16 -4 5 -1 9 4 9 6 0 11 6 11 14 0 8 5 16 10 18 6 2 13 28 16 58 3
30 9 73 12 95 4 22 7 84 7 137 0 54 4 98 8 98 5 0 5 5 1 11 -4 7 -6 116 -4
243 2 127 3 293 3 368 0 137 0 138 -27 159 -14 11 -24 24 -21 28 7 13 -37 58
-65 65 -14 4 -41 9 -60 12 -19 3 -46 9 -60 15 -14 5 -56 11 -95 14 -38 3 -88
10 -110 16 -22 6 -47 11 -55 13 -9 1 -21 5 -28 10 -7 4 -12 2 -12 -6 0 -9 -3
-9 -8 -2 -4 6 -23 11 -42 11 l-35 0 4 49 c1 27 5 52 8 57 2 4 22 7 45 7 l40 0
-4 -48z m332 29 c0 -40 -13 -81 -26 -81 -17 0 -19 52 -4 81 14 24 30 25 30 0z
m-683 -43 c-3 -7 -5 -2 -5 12 0 14 2 19 5 13 2 -7 2 -19 0 -25z m-3152 2 c16
-17 16 -20 3 -15 -9 4 -19 13 -22 21 -7 19 -2 18 19 -6z m-300 0 c3 -5 -1 -10
-10 -10 -9 0 -13 5 -10 10 3 6 8 10 10 10 2 0 7 -4 10 -10z m3139 -6 c17 -44
-9 -62 -55 -39 -33 18 -36 30 -11 44 26 16 59 13 66 -5z m-3280 -18 c-3 -9
-10 -13 -15 -10 -5 3 -3 11 4 19 15 16 19 13 11 -9z m4606 14 c350 -23 529
-76 632 -188 90 -98 124 -213 115 -392 -9 -175 -67 -321 -176 -443 -42 -46
-61 -76 -61 -94 0 -14 43 -119 96 -232 53 -113 99 -224 101 -247 5 -35 1 -45
-23 -71 -16 -16 -28 -27 -26 -24 1 2 -10 12 -25 22 -14 10 -28 27 -30 38 -1
11 -12 38 -23 60 -12 21 -22 49 -23 60 -1 12 -4 21 -8 21 -6 0 -17 22 -24 50
-2 7 -15 38 -33 80 -8 19 -14 38 -14 43 1 4 -2 7 -8 7 -5 0 -7 6 -4 13 2 7 -6
23 -20 36 -25 23 -46 21 -46 -4 0 -7 -5 -15 -11 -17 -20 -7 -38 -132 -39 -260
0 -128 -12 -183 -36 -174 -7 3 -11 0 -8 -7 4 -12 -3 -13 -68 -8 -10 0 -26 11
-38 23 -22 24 -28 54 -7 42 7 -5 6 0 -3 10 -10 13 -15 45 -16 110 0 50 1 95 4
100 3 5 5 61 6 125 1 64 4 121 6 126 3 6 5 76 5 157 0 92 4 148 10 148 6 0 4
4 -4 9 -7 5 -9 11 -4 14 9 6 8 79 -2 106 -3 7 0 20 7 28 7 9 8 17 2 21 -5 4
-8 18 -7 32 2 14 4 30 4 35 1 6 -2 24 -6 40 -5 23 -4 26 4 15 8 -11 10 -2 8
37 -1 29 -4 53 -8 53 -6 0 -4 63 3 76 3 5 4 25 2 44 -1 19 3 41 9 49 9 12 9
13 0 7 -10 -5 -13 6 -13 48 0 30 -5 58 -10 61 -6 4 -8 11 -5 16 4 5 1 9 -4 9
-6 0 -11 9 -11 20 0 11 -4 20 -10 20 -5 0 -12 11 -16 25 -9 36 -41 55 -92 55
-29 0 -41 4 -36 11 4 8 -3 9 -25 4 -31 -7 -134 18 -155 37 -6 4 -37 9 -70 9
-49 1 -55 3 -31 9 43 11 101 11 265 0z m-4565 -20 c3 -6 -1 -7 -9 -4 -18 7
-21 14 -7 14 6 0 13 -4 16 -10z m2723 -35 l3 -40 182 4 c104 2 227 -2 287 -9
152 -17 489 -68 532 -80 78 -22 124 -105 116 -208 -6 -63 -33 -96 -88 -107
-28 -5 -32 -4 -20 5 12 10 11 11 -5 4 -11 -4 -41 -9 -67 -12 -32 -3 -53 -11
-68 -27 l-22 -23 1 -544 c1 -559 -5 -688 -33 -717 -11 -11 -34 -16 -74 -16
-53 0 -58 2 -73 30 -9 17 -17 50 -18 75 -2 55 -4 199 -3 260 1 25 1 61 0 80 0
19 1 206 2 415 2 209 0 390 -4 403 -6 17 -15 22 -39 22 -26 0 -29 2 -17 11 12
9 11 9 -5 3 -28 -10 -122 -11 -177 0 -33 6 -49 14 -53 27 -4 11 -11 17 -16 13
-6 -3 -7 7 -4 25 3 20 1 31 -6 31 -7 0 -9 10 -7 25 3 14 1 25 -5 25 -5 0 -7
11 -5 25 3 14 1 28 -4 31 -5 3 -7 13 -3 22 3 9 3 13 -1 10 -12 -12 -36 22 -39
55 -2 18 -3 35 -4 39 -1 4 -7 5 -15 2 -8 -3 -25 0 -38 7 -13 7 -41 14 -63 17
-22 2 -63 11 -92 21 -31 10 -56 14 -61 9 -6 -6 -16 -3 -25 6 -8 9 -17 12 -19
7 -2 -4 -19 -1 -38 6 -29 13 -32 16 -17 24 11 6 17 22 17 43 0 42 6 48 50 44
33 -3 35 -5 38 -43z m-458 -44 l0 -49 103 -11 c141 -16 210 -29 298 -57 90
-28 122 -51 152 -107 22 -42 22 -45 23 -572 1 -291 2 -548 3 -570 l1 -40 94 3
c73 3 102 0 128 -14 81 -41 99 -77 99 -195 0 -99 -21 -157 -55 -151 -10 2 -24
-2 -32 -9 -8 -6 -27 -9 -42 -6 -16 3 -46 2 -68 -3 -21 -5 -75 -10 -119 -11
-44 -1 -90 -6 -103 -11 -13 -4 -21 -4 -18 1 3 4 -8 8 -25 9 -20 0 -40 12 -65
38 -30 30 -35 42 -32 70 2 19 -1 34 -6 34 -7 0 -6 4 0 10 6 6 8 31 3 63 -3 28
-4 56 -2 60 3 4 6 52 7 106 2 54 6 103 10 109 4 7 3 12 -1 12 -5 0 -7 24 -6
53 2 28 5 206 7 394 2 187 7 346 10 352 4 6 4 11 -1 11 -4 0 -7 49 -5 110 2
66 0 110 -6 110 -8 0 -13 11 -27 60 -1 3 -5 20 -9 38 -5 21 -13 32 -21 28 -7
-2 -21 1 -32 9 -10 7 -44 16 -76 20 -31 4 -55 10 -53 14 3 4 -12 7 -32 8 -108
4 -287 43 -234 51 18 3 22 10 22 43 l0 39 55 0 55 0 0 -49z m-245 -11 c0 -32
-3 -35 -27 -34 -16 1 -28 -3 -28 -9 0 -5 -9 -7 -20 -4 -11 3 -20 2 -20 -2 0
-3 48 -19 108 -34 201 -51 265 -74 310 -113 82 -70 77 -26 77 -684 0 -534 -2
-592 -19 -665 -22 -99 -66 -183 -123 -239 -38 -38 -53 -45 -117 -58 -46 -9
-80 -11 -90 -6 -11 6 -16 5 -16 -4 -1 -8 -6 -5 -15 6 -8 11 -15 14 -15 8 0 -7
-6 -12 -12 -12 -19 1 -155 70 -138 70 8 0 0 9 -17 20 -18 11 -33 27 -33 35 0
9 -4 14 -9 10 -9 -5 -37 62 -33 78 1 4 -2 7 -7 7 -10 0 -32 58 -38 98 -2 12
-4 32 -6 45 -2 13 -6 28 -10 34 -4 6 -3 14 3 18 5 3 10 11 10 16 0 6 -3 8 -7
6 -5 -3 -9 79 -10 181 -1 103 -3 187 -3 187 -1 0 -3 10 -4 23 -2 12 0 22 3 22
9 0 7 74 -3 89 -6 10 -5 12 2 7 7 -4 12 -3 12 3 0 5 -5 13 -10 16 -7 4 -7 13
0 24 6 12 5 22 -3 31 -9 10 -9 11 0 6 9 -5 11 2 8 24 -2 16 1 30 6 30 6 0 7 6
3 12 -9 14 -7 365 2 379 3 5 0 9 -6 9 -6 0 -8 5 -5 10 3 6 1 10 -5 10 -6 0 -9
4 -6 8 3 5 -1 20 -9 35 -8 15 -12 27 -9 27 2 0 -5 9 -15 19 -11 11 -17 28 -15
38 4 14 -1 19 -21 21 -14 1 -35 7 -46 12 -10 6 -34 12 -52 14 -71 8 -109 18
-171 47 -14 7 -32 9 -42 5 -9 -4 -27 1 -40 9 -18 12 -24 12 -25 3 0 -8 -2 -9
-5 -2 -2 6 -17 9 -32 6 -37 -5 -75 35 -70 74 3 25 7 29 33 29 22 0 31 -5 33
-20 10 -65 -3 -60 159 -60 124 0 161 -4 228 -23 97 -28 207 -80 258 -122 75
-63 71 -33 77 -635 4 -410 8 -545 18 -562 7 -13 30 -27 55 -34 23 -6 56 -18
72 -27 17 -9 33 -15 38 -14 4 1 7 -3 7 -9 0 -19 17 0 35 38 11 23 19 68 21
113 2 41 5 119 8 172 3 72 1 96 -8 91 -8 -5 -8 -3 0 8 7 8 11 59 10 132 -1 72
3 117 9 117 6 0 6 3 0 8 -14 9 -17 52 -4 52 5 0 9 5 9 11 0 5 -3 8 -7 6 -9 -6
-7 142 1 150 2 3 1 16 -4 28 -6 16 -5 25 3 29 7 4 8 8 2 11 -6 3 -9 52 -9 120
1 63 -2 115 -6 115 -5 0 -14 16 -20 35 -6 19 -15 33 -19 30 -5 -2 -13 6 -19
19 -9 21 -8 23 11 19 16 -3 18 -2 8 5 -11 8 -11 10 0 15 8 3 5 6 -8 6 -17 1
-21 6 -17 19 4 13 4 14 -4 4 -7 -10 -14 -11 -28 -4 -41 22 -114 43 -125 36 -8
-4 -9 -3 -5 4 5 8 0 12 -13 12 -10 0 -22 6 -24 13 -4 9 -8 9 -15 -1 -8 -11
-17 -11 -56 2 -26 9 -53 16 -61 16 -9 0 -23 4 -33 9 -9 5 -26 13 -37 17 l-20
7 20 5 c11 2 27 10 36 18 9 8 19 11 22 8 4 -4 9 1 12 10 3 9 7 23 10 31 4 13
22 15 107 13 l103 -3 0 -35z m-458 -37 c-3 -10 -5 -4 -5 12 0 17 2 24 5 18 2
-7 2 -21 0 -30z m-540 -60 c-2 -16 -4 -5 -4 22 0 28 2 40 4 28 2 -13 2 -35 0
-50z m-277 23 c0 -18 3 -48 6 -65 5 -24 3 -31 -10 -31 -9 0 -16 -4 -16 -9 0
-9 -55 -10 -63 -1 -2 3 -7 35 -10 73 l-6 67 49 0 50 0 0 -34z m-518 -8 c10 -8
18 -36 21 -75 l5 -62 -24 9 c-15 6 -24 6 -24 0 0 -5 -8 -6 -17 -3 -11 4 -13 8
-5 11 7 2 -7 14 -30 25 -38 19 -43 27 -46 59 -3 36 -2 37 35 41 21 2 45 4 54
5 8 1 22 -4 31 -10z m255 -110 c-2 -24 -4 -5 -4 42 0 47 2 66 4 43 2 -24 2
-62 0 -85z m528 -13 c121 -43 288 -133 350 -188 52 -45 107 -136 120 -194 13
-65 -39 -165 -80 -149 -10 4 -14 2 -9 -5 5 -8 -6 -9 -37 -4 -24 4 -47 12 -50
17 -3 5 -10 8 -15 6 -5 -1 -20 4 -33 11 -30 17 -123 18 -177 3 -53 -15 -152
-111 -182 -175 -35 -74 -52 -163 -52 -269 0 -113 13 -182 47 -256 34 -72 71
-93 173 -96 14 -1 28 -5 32 -11 5 -6 8 -6 8 1 0 6 7 11 15 11 8 0 15 -4 15 -9
0 -4 9 -3 20 4 11 7 20 18 20 25 0 7 5 13 11 13 5 0 7 -6 3 -12 -4 -8 -3 -10
2 -5 5 5 9 12 10 15 1 17 40 72 51 72 6 0 13 5 15 10 11 34 191 -120 207 -177
18 -65 -27 -186 -86 -233 -14 -11 -22 -20 -17 -20 9 0 -27 -21 -112 -64 -71
-36 -190 -54 -246 -36 -42 13 -138 59 -148 71 -3 3 -25 20 -49 37 -33 24 -39
32 -25 33 11 1 7 4 -11 9 -28 7 -28 8 -5 9 24 2 23 3 -8 16 -18 8 -31 19 -28
24 3 5 -1 11 -9 15 -8 3 -15 11 -15 18 0 8 -9 21 -20 31 -12 10 -18 22 -15 27
3 6 2 10 -2 10 -5 0 -10 10 -10 22 -1 13 -7 24 -14 27 -8 2 -7 6 2 12 11 7 11
9 -3 9 -12 0 -20 18 -33 71 -9 39 -13 74 -10 77 3 3 -1 15 -8 26 -17 25 -31
186 -16 186 5 0 2 14 -6 31 -13 23 -14 34 -5 45 7 8 13 52 14 104 0 49 4 90 8
90 4 0 5 12 2 28 -4 19 1 33 15 49 14 15 17 23 8 27 -9 3 -9 7 1 14 7 5 10 16
6 27 -5 12 -4 16 3 12 10 -6 23 35 24 76 0 9 5 17 11 17 5 0 8 7 5 14 -4 11
-1 13 10 9 11 -4 14 -3 9 6 -12 19 3 81 19 81 8 0 15 7 15 15 0 8 9 15 19 15
22 0 23 29 1 47 -8 6 -12 15 -7 19 4 4 7 2 7 -5 0 -7 5 -9 10 -6 8 5 7 11 -1
21 -10 12 -9 13 7 7 17 -6 18 -5 4 12 -14 17 -14 18 8 6 22 -12 23 -11 12 9
-9 18 -9 21 0 15 9 -5 10 -1 5 14 -7 22 9 30 19 9 4 -9 5 -8 5 2 -1 8 -1 22 0
30 1 13 2 13 11 0 8 -13 10 -13 10 1 0 9 7 19 15 23 25 9 17 40 -18 63 -17 12
-44 34 -59 48 -19 18 -28 21 -28 11 0 -9 -7 -12 -21 -9 -18 5 -17 7 11 21 27
13 33 13 41 1 6 -10 9 -10 9 -1 0 7 14 12 33 13 31 1 31 1 7 10 -17 6 -5 7 35
3 33 -3 100 -21 150 -39z m-662 -28 c7 -19 -8 -43 -17 -28 -4 6 -2 11 5 11 8
0 8 4 -1 15 -7 9 -8 15 -2 15 5 0 12 -6 15 -13z m65 -9 c-2 -6 -10 -14 -18
-16 -7 -3 -10 0 -6 6 3 6 0 13 -6 15 -7 3 -2 6 10 6 14 1 22 -4 20 -11z m5448
-1321 c-3 -13 -31 -158 -61 -323 -109 -584 -147 -770 -166 -813 -25 -58 -34
-47 -15 19 14 49 35 157 162 865 25 138 47 256 49 263 2 6 12 12 21 12 12 0
15 -6 10 -23z m-323 -111 c18 -7 40 -22 50 -34 39 -43 38 -209 -1 -261 -14
-19 -29 -26 -63 -28 -73 -4 -133 -11 -159 -17 -14 -3 -42 -7 -63 -10 -21 -2
-41 -7 -45 -11 -4 -4 -5 -161 -3 -349 4 -375 0 -408 -52 -452 -28 -24 -67 -33
-67 -15 0 5 -8 7 -19 4 -10 -2 -38 2 -62 10 -40 14 -44 19 -56 63 -8 32 -12
110 -11 221 2 154 4 171 17 160 13 -10 13 -8 0 8 -14 17 -16 39 -13 130 2 61
6 116 9 123 2 6 0 12 -6 12 -6 0 -8 4 -5 9 3 4 -5 18 -17 29 -21 20 -30 21
-132 16 -166 -9 -177 -8 -203 22 -17 19 -22 37 -22 72 1 26 -2 65 -6 87 -4 22
-7 48 -7 58 -1 9 -4 17 -8 17 -12 0 15 49 31 56 50 20 131 33 240 39 69 3 159
10 200 15 80 10 154 16 320 26 58 3 107 8 109 10 6 6 9 5 44 -10z m-1519 -126
c79 -16 134 -48 172 -99 53 -73 67 -126 62 -244 -5 -122 -32 -187 -111 -273
l-49 -54 86 -170 c107 -214 117 -260 65 -309 -13 -12 -18 -24 -14 -32 6 -8 4
-10 -4 -5 -7 5 -10 14 -7 22 4 11 -4 12 -42 8 -140 -17 -197 -3 -223 59 -6 15
-15 27 -20 27 -4 0 -11 16 -15 35 -3 19 -10 38 -15 41 -5 3 -7 10 -4 15 4 5 0
9 -7 9 -8 0 -15 11 -16 26 -1 14 -6 33 -12 43 -5 10 -6 22 -2 26 4 3 2 5 -5 3
-6 -2 -11 0 -12 5 -2 17 -35 73 -54 90 -25 21 -41 22 -58 1 -19 -23 -20 -30
-27 -229 -6 -149 -10 -186 -25 -208 -9 -15 -23 -27 -30 -28 -73 -4 -162 2
-174 13 -9 7 -18 12 -20 10 -7 -5 -28 23 -32 43 -9 44 -7 625 2 625 6 0 6 5 0
13 -5 6 -8 35 -6 62 4 71 5 324 1 363 -2 20 -9 32 -18 33 -10 0 -11 2 -3 6 10
3 10 10 2 25 -7 13 -7 18 -1 14 6 -3 13 -2 16 2 5 9 72 24 181 41 71 12 349 5
419 -9z m-1207 -129 c18 -12 46 -46 66 -83 36 -63 336 -809 356 -883 23 -86 3
-175 -40 -175 -13 0 -18 -4 -13 -12 6 -10 4 -10 -8 0 -9 7 -19 9 -22 4 -3 -5
-20 -8 -38 -6 -18 1 -50 4 -70 5 -29 2 -38 7 -38 21 0 10 -4 18 -10 18 -19 0
-24 5 -45 44 -11 21 -31 46 -43 54 -21 14 -22 13 -22 -20 0 -69 -48 -162 -78
-150 -11 4 -13 2 -7 -9 5 -8 5 -11 -1 -6 -5 5 -9 14 -9 20 -1 7 -6 11 -13 10
-16 -4 -16 14 1 20 6 3 3 6 -8 6 -13 1 -21 8 -22 21 -1 11 -16 34 -34 51 -25
25 -29 33 -18 40 11 7 10 9 -5 9 -16 0 -17 2 -5 17 12 15 12 16 -3 10 -10 -3
-18 -2 -18 3 0 6 -6 10 -13 10 -7 0 -23 9 -36 21 -18 17 -25 18 -37 8 -22 -18
-71 -130 -79 -181 -9 -57 -33 -106 -58 -120 -49 -26 -207 4 -207 40 0 6 -5 12
-11 12 -5 0 -7 5 -4 10 3 6 -1 10 -9 10 -20 0 -22 59 -3 79 10 11 9 12 -2 6
-9 -5 -12 -3 -9 6 3 8 10 13 15 12 6 -1 9 10 7 24 -1 15 4 42 12 61 8 19 14
43 14 53 0 11 4 19 9 19 6 0 8 8 7 18 -2 9 1 28 7 42 23 57 68 188 78 225 5
21 15 45 21 52 6 7 7 13 2 13 -5 0 -3 4 4 9 13 8 23 44 23 84 0 9 6 17 12 17
7 0 13 8 14 18 1 9 9 42 18 72 9 30 17 61 17 68 1 6 5 12 10 12 5 0 7 4 3 9
-6 11 26 91 37 91 5 0 8 12 8 26 0 17 4 23 13 18 9 -6 9 -4 -1 8 -9 11 -10 18
-2 23 5 3 10 15 10 25 0 31 64 88 112 98 72 16 130 14 165 -7z m-992 -82 c69
-21 126 -63 151 -110 29 -57 11 -164 -37 -215 -17 -18 -26 -20 -64 -13 -24 5
-54 14 -67 20 -13 7 -29 15 -37 19 -17 7 -123 -7 -131 -18 -3 -4 -11 -7 -17
-8 -30 -2 -34 -5 -28 -14 3 -5 1 -10 -6 -10 -13 0 -49 -38 -85 -91 -25 -37
-54 -147 -54 -211 0 -60 20 -137 44 -165 29 -33 105 -53 163 -42 46 9 98 41
85 53 -3 4 1 4 9 1 9 -3 22 1 29 10 20 25 42 18 107 -35 98 -79 125 -159 82
-247 -23 -47 -101 -120 -124 -115 -7 1 -29 -7 -49 -19 -20 -11 -52 -21 -71
-21 -20 0 -35 -5 -35 -11 0 -7 -5 -5 -10 3 -5 8 -10 10 -10 5 0 -22 -198 10
-220 36 -3 3 -27 16 -53 29 -27 14 -53 33 -58 42 -6 10 -15 15 -21 12 -7 -4
-8 -3 -4 4 3 6 -1 15 -11 21 -10 5 -31 32 -48 60 -16 28 -33 51 -38 51 -4 0
-5 5 -2 10 3 6 2 10 -3 10 -5 0 -9 7 -10 15 -1 8 -3 22 -4 30 -1 8 -6 15 -11
15 -6 0 -8 2 -5 5 3 3 -2 34 -12 68 -11 42 -16 94 -14 162 1 55 3 100 4 100 1
0 4 9 6 20 2 11 8 39 14 63 6 24 8 47 5 53 -4 5 1 9 9 9 10 0 16 9 16 25 0 14
5 25 11 25 5 0 8 4 4 9 -3 5 -1 12 5 16 5 3 10 16 10 27 0 11 10 29 22 39 11
11 16 19 10 19 -7 0 -12 5 -12 11 0 5 4 8 9 4 12 -7 25 31 16 45 -3 5 -1 10 4
10 6 0 11 6 11 14 0 8 12 24 26 35 15 12 22 21 15 21 -6 0 -11 5 -11 11 0 6
10 8 23 5 12 -3 17 -3 10 0 -16 7 5 54 22 48 7 -3 15 2 19 11 3 9 10 13 16 10
5 -3 10 -2 10 3 0 27 160 61 257 56 40 -3 102 -14 138 -25z m3630 -61 c-23
-137 -105 -642 -105 -649 0 -5 -17 -9 -38 -9 l-39 0 23 118 c13 64 40 214 60
332 20 118 41 221 46 228 6 6 21 12 35 12 21 0 23 -3 18 -32z m732 -14 c-3 -3
-12 -4 -19 -1 -8 3 -5 6 6 6 11 1 17 -2 13 -5z m-629 -745 c-2 12 12 14 70 13
41 0 79 -6 87 -12 10 -8 15 -7 19 2 5 10 7 10 12 0 3 -6 10 -9 15 -6 6 3 17 0
25 -7 9 -7 23 -14 31 -15 9 -2 21 -8 27 -15 8 -9 6 -9 -11 0 -25 13 -30 3 -10
-18 10 -11 9 -12 -2 -6 -11 6 -13 4 -8 -9 5 -13 3 -15 -11 -7 -10 5 -25 5 -37
0 -18 -9 -18 -9 2 -5 13 2 26 0 29 -5 3 -5 0 -9 -6 -9 -6 0 -9 -4 -5 -9 12
-20 -15 -21 -35 -1 -15 15 -20 16 -20 6 0 -8 -5 -18 -12 -22 -6 -4 -8 -3 -5 3
5 7 -6 10 -29 9 -20 -2 -40 -9 -44 -17 -12 -18 -90 -20 -83 -2 4 9 10 10 24 2
13 -6 25 -7 37 0 15 9 15 10 -3 9 -11 0 -34 2 -51 5 -24 3 -31 0 -30 -12 0 -8
-5 -16 -11 -17 -7 -1 -18 -2 -24 -3 -5 0 -7 -5 -4 -11 3 -6 -1 -7 -10 -3 -13
5 -14 7 -3 14 14 9 14 9 -19 13 -13 2 -19 -2 -16 -7 4 -6 0 -8 -10 -4 -10 4
-21 -1 -27 -11 -11 -16 -11 -16 -6 0 3 10 1 20 -5 23 -5 4 -8 1 -7 -6 2 -6 -3
-14 -11 -17 -10 -3 -12 0 -8 14 7 18 7 18 -7 1 -10 -12 -22 -17 -35 -13 -65
18 -67 18 -36 -3 17 -12 26 -21 22 -21 -14 0 -51 23 -65 39 -11 14 -11 14 -6
-1 4 -11 0 -20 -10 -24 -9 -3 -13 -10 -10 -15 6 -10 -42 9 -63 23 -13 10 -27
-7 -18 -22 3 -5 0 -7 -9 -4 -8 3 -12 12 -10 19 7 17 -25 14 -35 -4 -6 -10 -10
-9 -14 3 -3 8 -1 17 6 20 7 3 -4 3 -23 0 -26 -3 -31 -2 -20 6 13 9 13 10 0 10
-13 0 -13 2 -1 9 8 5 12 18 9 28 -4 17 3 21 51 32 31 6 73 20 94 30 20 11 37
16 37 12 0 -10 65 -4 89 8 14 8 21 8 21 1 0 -5 7 -10 16 -10 8 0 13 4 10 8 -2
4 4 8 14 9 13 1 17 -3 13 -15 -4 -14 -3 -15 6 -2 9 14 39 20 104 22 15 0 27 5
27 11 0 6 7 2 15 -9 9 -12 14 -14 13 -5z m299 -74 c0 -8 -4 -12 -9 -9 -5 3 -6
10 -3 15 9 13 12 11 12 -6z m-163 -61 c3 -8 2 -12 -4 -9 -6 3 -10 10 -10 16 0
14 7 11 14 -7z m-1444 -33 c0 9 3 10 8 4 4 -6 13 -10 20 -9 6 1 17 2 23 3 5 0
7 7 4 14 -4 6 3 1 14 -12 19 -21 21 -21 21 -5 0 16 2 17 10 4 5 -8 15 -15 22
-16 33 -3 38 -5 38 -15 0 -8 -5 -7 -16 2 -13 10 -17 10 -24 0 -6 -11 -9 -11
-13 0 -3 9 -6 10 -6 2 -1 -17 16 -26 24 -13 5 8 14 5 28 -7 11 -10 17 -12 12
-4 -6 10 -4 12 5 6 10 -6 12 -4 7 7 -4 13 2 16 37 15 33 -1 42 -5 42 -20 0
-16 -2 -17 -12 -3 -14 20 -28 21 -21 2 3 -8 -2 -13 -16 -13 -12 0 -31 -4 -41
-8 -13 -6 -21 -4 -24 3 -2 7 -8 9 -14 6 -7 -4 -1 -15 13 -27 l24 -19 -26 15
c-20 12 -29 13 -38 4 -8 -8 -11 -8 -11 0 0 6 5 13 11 15 7 2 6 8 -3 16 -12 9
-15 9 -16 -3 -1 -8 -3 -22 -4 -30 -1 -11 -5 -12 -12 -5 -5 5 -22 10 -38 10
-17 0 -26 5 -24 13 1 6 1 9 -1 5 -9 -16 -32 -7 -38 13 -4 11 -9 18 -12 15 -3
-3 1 -16 10 -30 15 -22 15 -24 -2 -19 -10 3 -22 0 -26 -7 -5 -8 -13 -6 -28 7
-20 18 -18 8 7 -27 6 -9 1 -6 -10 6 -12 13 -25 20 -28 17 -3 -3 -12 0 -20 6
-12 10 -16 8 -21 -9 -3 -11 -11 -17 -17 -14 -7 4 -6 9 2 14 16 10 13 21 -13
48 -19 21 -19 22 -3 16 15 -6 17 -4 11 6 -5 9 -4 11 3 6 7 -4 12 -15 12 -25 0
-10 11 -23 23 -28 22 -10 24 -9 24 20 0 18 -2 26 -5 19 -2 -6 -8 -10 -13 -7
-5 4 -6 -2 -2 -12 4 -13 3 -15 -6 -7 -19 17 -3 43 24 38 16 -3 27 2 34 13 9
16 13 16 32 5 19 -12 21 -12 16 2 -6 15 -4 15 18 0 20 -13 25 -14 25 -3z
m-196 -59 c3 -5 -1 -9 -9 -9 -8 0 -12 4 -9 9 3 4 7 8 9 8 2 0 6 -4 9 -8z m161
-42 c3 -5 1 -10 -4 -10 -6 0 -11 5 -11 10 0 6 2 10 4 10 3 0 8 -4 11 -10z m73
-15 c-3 -3 -9 2 -12 12 -6 14 -5 15 5 6 7 -7 10 -15 7 -18z m818 -166 c82 -34
254 -103 383 -155 265 -106 301 -125 359 -188 124 -134 75 -352 -91 -404 -89
-29 -61 -24 -676 -107 -579 -77 -635 -81 -646 -44 -4 11 -13 19 -21 19 -8 0
-14 4 -14 9 0 5 -11 12 -25 15 -14 4 -23 11 -20 16 3 5 -4 7 -15 5 -11 -2 -20
1 -20 7 0 6 -10 8 -24 4 -14 -3 -28 -1 -31 4 -4 6 -10 8 -15 5 -5 -3 -20 1
-34 10 -20 14 -26 14 -38 2 -8 -8 -32 -17 -54 -19 -21 -3 -48 -9 -58 -13 -15
-7 -18 -5 -12 6 6 11 4 10 -6 -1 -7 -8 -27 -16 -45 -16 -25 -2 -29 1 -20 11 7
7 15 11 20 8 4 -2 7 0 7 4 0 19 117 65 193 76 21 3 50 2 64 -4 42 -16 38 -2
-6 23 -22 13 -41 26 -41 29 0 3 26 22 58 42 88 54 138 97 184 157 46 61 109
191 126 261 13 52 14 153 2 185 -5 12 -6 25 -2 28 11 11 11 36 -1 36 -5 0 -7
3 -4 7 8 7 269 40 333 42 30 1 84 -16 190 -60z m498 22 c-2 -3 -12 3 -22 13
-16 17 -16 18 5 5 12 -7 20 -15 17 -18z m40 13 c5 -14 4 -15 -9 -4 -17 14 -19
20 -6 20 5 0 12 -7 15 -16z m57 -23 l24 -19 -26 1 c-18 2 -25 6 -21 16 3 9 1
12 -6 7 -7 -4 -12 -2 -12 3 0 16 15 13 41 -8z m229 -96 c0 -2 -6 -5 -13 -8 -8
-3 -14 1 -14 8 0 7 6 11 14 8 7 -3 13 -6 13 -8z m277 -227 c-3 -8 -6 -5 -6 6
-1 11 2 17 5 13 3 -3 4 -12 1 -19z m-1904 -132 c7 2 17 -4 24 -15 10 -16 8
-20 -13 -31 -13 -8 -24 -18 -24 -24 0 -6 -4 -5 -9 3 -7 11 -10 9 -16 -8 -4
-15 -18 -23 -46 -27 -28 -5 -39 -11 -35 -20 3 -7 0 -16 -6 -20 -7 -4 -8 -3 -4
4 4 7 2 12 -3 12 -19 0 -26 -5 -23 -15 2 -5 -6 -1 -19 10 l-22 20 7 -25 c4
-14 4 -20 -1 -15 -9 12 -63 16 -63 5 0 -4 -18 -6 -40 -5 -22 1 -40 -2 -40 -6
0 -5 -5 -9 -11 -9 -6 0 -8 8 -5 18 4 11 -1 8 -15 -8 -11 -14 -18 -19 -14 -12
4 7 0 12 -9 12 -9 0 -16 -5 -16 -11 0 -5 -6 -7 -12 -3 -16 10 -80 5 -92 -6
-11 -11 -38 -1 -30 12 4 6 10 5 15 -3 6 -10 9 -10 9 -2 0 19 -17 24 -30 8 -19
-22 -27 -18 -25 13 3 40 4 44 14 38 5 -4 12 0 15 6 3 7 4 2 1 -12 -3 -14 -2
-19 1 -12 3 6 10 10 15 7 5 -4 6 1 3 10 -5 11 -2 14 10 9 11 -4 16 -1 16 12 0
14 2 16 9 6 7 -11 9 -11 14 1 3 9 14 14 24 12 10 -1 23 1 28 5 9 7 58 22 80
24 52 7 95 20 95 29 0 7 5 5 10 -3 9 -13 10 -13 10 0 0 13 1 13 10 0 5 -8 10
-10 10 -4 0 6 18 10 41 10 22 -1 45 5 51 11 6 7 15 10 21 6 21 -13 59 -9 65 7
6 13 7 13 10 -2 2 -9 9 -15 15 -12z m41 8 c3 -8 2 -12 -4 -9 -6 3 -10 10 -10
16 0 14 7 11 14 -7z m1926 -75 c0 8 2 12 5 9 3 -3 2 -13 -1 -22 -5 -14 -9 -15
-15 -4 -5 7 -9 18 -9 23 0 6 5 3 10 -5 8 -12 10 -12 10 -1z m-5 -47 c-3 -3
-11 0 -18 7 -9 10 -8 11 6 5 10 -3 15 -9 12 -12z m-2566 -64 l-21 -23 11 23
c6 12 8 22 4 22 -4 0 -1 5 7 10 24 15 24 -7 -1 -32z m2568 20 c-3 -8 -6 -5 -6
6 -1 11 2 17 5 13 3 -3 4 -12 1 -19z m-2606 -15 c13 -16 12 -17 -3 -4 -10 7
-18 15 -18 17 0 8 8 3 21 -13z m2529 -149 c0 -8 -19 -13 -24 -6 -3 5 1 9 9 9
8 0 15 -2 15 -3z m-157 -70 c14 -2 15 1 6 12 -10 12 -9 13 5 8 21 -8 20 -20
-1 -33 -10 -6 -13 -11 -6 -11 7 0 10 -7 7 -15 -4 -8 -10 -13 -14 -10 -13 8
-18 -18 -7 -40 l10 -20 -23 20 c-13 11 -20 14 -15 6 6 -11 4 -13 -8 -8 -11 4
-14 2 -10 -8 3 -8 9 -12 14 -9 5 3 17 1 26 -5 17 -9 16 -10 -2 -11 -65 -2 -75
-6 -55 -26 7 -7 -10 -9 -51 -9 -44 1 -59 -1 -55 -11 6 -16 -21 -27 -30 -12 -4
7 -3 8 4 4 7 -4 12 -3 12 2 0 6 -7 13 -16 16 -9 4 -13 2 -8 -5 4 -8 -1 -9 -17
-4 -24 7 -24 7 -4 -9 16 -13 17 -15 3 -10 -10 3 -18 1 -18 -5 0 -6 5 -11 12
-11 6 0 9 -2 6 -5 -12 -12 -37 7 -30 23 5 14 3 15 -10 5 -8 -7 -18 -10 -21 -6
-4 3 -7 1 -7 -5 0 -7 5 -12 12 -12 6 0 8 -3 5 -7 -4 -3 -16 3 -27 15 -23 25
-39 30 -20 7 9 -11 9 -15 1 -15 -7 0 -9 -4 -6 -10 3 -6 -1 -7 -10 -3 -11 4
-13 8 -5 13 8 5 6 11 -5 20 -9 7 -15 9 -14 4 5 -29 -1 -34 -25 -19 -19 13 -25
13 -35 2 -6 -8 -8 -17 -5 -20 12 -12 -38 2 -54 15 -13 11 -14 10 -4 -9 14 -25
16 -45 3 -24 -5 7 -14 10 -20 7 -6 -4 -8 -12 -5 -18 4 -7 2 -8 -5 -4 -6 4 -9
11 -6 15 2 5 -7 6 -20 3 -14 -2 -25 -8 -25 -13 0 -5 -5 -9 -11 -9 -8 0 -8 5 1
15 10 13 9 15 -8 15 -12 0 -24 -4 -27 -10 -3 -5 -1 -10 4 -10 6 0 11 -4 11 -9
0 -5 -12 -5 -28 1 -21 8 -40 7 -79 -4 -47 -14 -51 -14 -48 1 2 14 -3 16 -26
13 -16 -2 -26 -8 -24 -13 3 -4 11 -7 18 -5 7 1 9 1 4 -1 -4 -3 -4 -10 -1 -16
5 -8 2 -8 -7 1 -15 14 -33 17 -25 4 3 -5 0 -9 -7 -10 -39 -3 -55 -2 -80 4 -23
5 -26 4 -21 -10 5 -12 2 -15 -12 -9 -13 5 -15 3 -9 -7 5 -9 4 -11 -4 -6 -6 4
-9 11 -6 16 3 5 1 11 -5 15 -5 3 -10 -1 -10 -9 0 -8 -4 -17 -9 -21 -6 -3 -8 3
-6 13 2 12 -3 18 -16 18 -22 0 -24 -7 -6 -26 10 -12 9 -12 -6 0 -20 15 -66 20
-73 8 -3 -5 -9 -6 -14 -3 -5 3 -11 1 -15 -5 -4 -6 -11 -8 -16 -5 -5 4 -16 -1
-25 -9 -16 -16 -39 -22 -30 -8 2 4 1 14 -5 22 -7 13 -9 12 -9 -2 0 -14 -5 -15
-30 -8 -17 5 -32 5 -35 0 -3 -5 -13 -7 -23 -4 -14 5 -14 3 2 -6 15 -10 20 -9
27 1 7 11 9 10 9 -3 0 -21 -8 -22 -46 -8 -30 12 -47 4 -24 -10 9 -6 10 -10 3
-10 -6 0 -15 5 -18 10 -10 16 -28 12 -22 -5 11 -26 -11 -26 -45 2 -18 15 -27
20 -19 10 9 -11 10 -17 2 -18 -32 -4 -36 -6 -33 -18 1 -7 -2 -10 -8 -6 -7 4
-7 13 1 28 6 12 -1 7 -16 -11 -27 -32 -28 -33 -53 -16 -24 16 -26 16 -44 -7
-14 -17 -18 -19 -14 -6 3 9 1 17 -4 17 -6 0 -10 5 -10 11 0 5 5 7 10 4 6 -3
10 -4 10 -1 0 3 -5 8 -10 11 -6 3 -14 -5 -20 -19 -10 -27 -24 -33 -35 -16 -3
5 -12 7 -20 4 -8 -4 -12 -11 -8 -17 3 -6 1 -7 -6 -3 -6 4 -10 15 -9 23 2 9 -3
17 -10 19 -7 1 -8 0 -3 -2 5 -3 1 -14 -10 -25 -23 -23 -29 -24 -29 -2 0 18
-15 8 -15 -10 0 -7 -9 -11 -19 -9 -11 2 -15 -1 -11 -7 4 -7 0 -8 -10 -4 -13 5
-14 7 -3 14 7 5 11 9 8 10 -50 9 -54 9 -40 -1 13 -8 13 -11 1 -22 -8 -7 -11
-8 -8 -2 7 12 -61 13 -80 1 -7 -5 -17 -6 -22 -2 -5 3 -13 0 -16 -5 -5 -8 -14
-5 -28 7 -21 18 -21 18 -7 -2 8 -11 20 -23 25 -27 6 -5 6 -8 -1 -8 -6 0 -17 7
-24 15 -18 21 -30 19 -30 -7 -1 -21 -2 -20 -16 7 -8 17 -12 22 -10 13 4 -12 0
-16 -15 -13 -10 2 -19 0 -19 -5 0 -6 -11 -5 -26 1 -25 9 -26 8 -13 -8 9 -11
10 -14 2 -9 -8 4 -13 2 -14 -6 0 -7 -4 -4 -9 7 -5 11 -9 15 -9 10 -1 -6 -18
-12 -38 -13 -21 -2 -39 -7 -41 -12 -7 -19 -21 -10 -17 10 2 11 0 22 -5 25 -13
8 -41 -6 -34 -17 4 -6 10 -5 15 3 4 7 10 11 13 8 3 -2 1 -10 -3 -17 -6 -10
-15 -10 -35 -2 -17 6 -25 6 -21 0 3 -6 1 -10 -4 -10 -6 0 -11 6 -12 13 0 10
-2 10 -6 0 -2 -7 -11 -13 -19 -13 -9 0 -13 -4 -9 -9 3 -5 1 -13 -5 -16 -6 -4
-10 -3 -9 2 3 19 -2 33 -12 33 -5 0 -8 -4 -5 -9 8 -12 -89 -35 -106 -25 -7 4
-4 -3 6 -15 l20 -22 -29 15 c-20 10 -33 12 -41 5 -8 -7 -17 -5 -27 5 -13 13
-16 13 -20 2 -4 -9 -14 -12 -28 -9 -15 4 -20 3 -15 -5 5 -8 2 -10 -8 -6 -9 3
-13 10 -10 15 3 5 -2 6 -10 3 -9 -3 -14 -10 -11 -14 9 -15 -14 -21 -36 -9 -12
6 -19 7 -15 1 3 -5 -1 -13 -10 -16 -10 -4 -13 -2 -8 7 4 6 -3 3 -16 -8 -13
-11 -20 -14 -16 -7 8 14 -10 17 -19 2 -8 -13 -25 -13 -25 1 0 5 6 7 13 3 6 -4
8 -3 4 1 -11 13 -38 15 -30 2 4 -7 0 -8 -13 -4 -18 7 -18 6 -1 -7 17 -13 16
-14 -3 -19 -13 -3 -18 -1 -13 6 4 7 0 8 -12 4 -9 -4 -24 -2 -31 4 -11 9 -14 9
-14 0 0 -7 -5 -9 -10 -6 -6 3 -23 -4 -38 -16 -26 -21 -26 -22 -4 -16 13 3 21
3 17 -1 -4 -4 -25 -7 -48 -8 -22 0 -35 2 -29 4 7 2 10 8 7 13 -4 5 1 6 9 3 8
-3 22 -1 31 4 16 8 16 10 1 15 -9 4 -16 2 -16 -4 0 -6 -7 -6 -20 1 -16 8 -20
8 -18 -2 2 -7 -5 -12 -14 -12 -10 1 -15 -2 -12 -7 3 -5 0 -9 -6 -9 -6 0 -9 -4
-6 -8 2 -4 -20 -8 -50 -8 -30 0 -54 4 -54 9 0 5 7 7 15 3 22 -8 18 2 -5 14
-11 6 -20 7 -19 3 4 -22 -2 -25 -15 -7 -14 19 -14 19 -13 -1 1 -14 -5 -20 -20
-21 -13 -1 -23 3 -23 8 0 6 8 7 18 3 13 -5 14 -4 5 6 -9 9 -16 9 -26 1 -8 -7
-17 -8 -21 -4 -4 4 -6 0 -4 -8 2 -8 8 -18 13 -22 6 -5 5 -8 -3 -8 -7 0 -15 7
-18 15 -4 8 -10 12 -15 9 -5 -3 -6 -10 -3 -16 4 -7 2 -8 -4 -4 -6 4 -8 14 -5
24 3 9 -4 5 -16 -10 -12 -16 -28 -28 -34 -27 -8 0 -8 2 1 6 6 2 12 11 12 18 0
10 -5 11 -24 2 -13 -6 -21 -17 -19 -24 6 -15 2 -16 -22 -7 -13 5 -14 8 -3 15
11 7 10 10 -1 21 -11 11 -13 11 -6 -1 5 -9 3 -12 -6 -9 -8 3 -22 -1 -31 -9
-11 -10 -24 -12 -40 -7 -32 11 -42 11 -50 0 -4 -6 -17 -3 -32 7 -32 21 -46 22
-20 1 18 -15 18 -15 -3 -9 -18 5 -22 3 -17 -9 3 -9 10 -13 15 -10 5 3 6 -3 2
-12 -4 -11 -8 -13 -11 -6 -2 7 -8 12 -13 12 -6 0 -7 -4 -4 -10 3 -5 2 -10 -4
-10 -5 0 -11 5 -13 11 -2 6 -16 12 -31 12 -15 0 -24 3 -21 8 11 18 -8 8 -31
-16 -16 -19 -25 -22 -31 -14 -4 8 -3 9 4 5 7 -4 12 -2 12 4 0 7 -8 9 -20 5
-13 -4 -20 -2 -20 7 0 10 -3 9 -10 -2 -9 -13 -11 -13 -20 0 -5 8 -10 12 -10 8
0 -3 -3 -14 -6 -22 -5 -12 -2 -15 12 -10 15 6 17 4 7 -6 -9 -10 -15 -10 -26
-2 -8 7 -17 9 -20 5 -4 -3 -10 2 -13 11 -5 14 -9 15 -15 4 -12 -18 -11 -38 2
-38 6 0 8 7 5 16 -3 8 -2 12 4 9 16 -10 12 -23 -11 -36 -17 -8 -20 -8 -14 1 5
8 3 11 -6 8 -8 -3 -13 -11 -11 -18 2 -11 0 -10 -13 0 -14 11 -20 11 -37 1 -16
-10 -19 -10 -12 1 13 21 13 36 -1 48 -9 8 -12 4 -9 -15 2 -22 0 -24 -12 -14
-8 7 -25 13 -37 13 -12 1 -28 5 -36 10 -10 7 -12 3 -7 -15 7 -22 6 -23 -7 -6
-8 10 -24 19 -36 20 -12 1 -21 5 -21 11 0 5 -9 -1 -20 -14 -19 -21 -26 -16
-21 14 1 5 -3 12 -10 16 -9 6 -7 14 5 31 9 13 16 35 16 49 0 20 -2 22 -11 10
-8 -12 -10 -12 -7 -1 5 17 48 26 48 10 0 -5 -4 -7 -10 -4 -13 8 -13 -5 0 -25
8 -13 10 -12 10 3 0 10 4 15 10 12 6 -3 7 1 4 9 -10 25 6 19 17 -6 9 -22 9
-22 6 3 -2 16 1 26 9 26 7 0 11 -3 9 -7 -2 -3 0 -12 6 -20 7 -12 9 -12 9 4 0
16 2 17 17 5 14 -12 16 -12 8 0 -6 11 -4 13 8 8 9 -3 18 -1 21 6 3 9 8 8 15
-3 9 -13 11 -13 11 3 0 9 5 17 10 17 6 0 10 -5 10 -12 0 -6 7 -3 15 8 14 19
14 18 15 -3 0 -13 -5 -23 -12 -23 -6 0 -8 -3 -4 -7 4 -4 16 3 26 17 13 17 20
20 20 10 0 -10 7 -7 20 10 11 14 18 18 14 9 -3 -10 0 -20 7 -25 8 -4 10 -3 5
4 -4 7 -2 20 3 29 10 17 10 16 11 -2 1 -11 4 -14 7 -7 2 6 9 12 14 12 4 0 6
-6 3 -14 -3 -8 0 -17 6 -21 6 -4 11 -1 9 6 -3 26 1 39 12 39 5 0 7 -4 4 -10
-3 -5 0 -10 9 -10 8 0 17 6 20 13 4 6 4 1 2 -13 l-5 -25 20 24 c10 13 19 18
19 11 0 -10 3 -10 14 -1 11 10 15 8 19 -6 4 -15 5 -15 6 3 1 18 6 21 39 17 35
-4 36 -3 17 12 l-20 15 20 -7 c11 -3 23 -11 26 -16 4 -5 16 2 28 15 l22 23
-10 -27 c-6 -16 -7 -28 -2 -28 5 0 11 9 14 20 3 13 10 18 21 14 11 -4 16 0 17
12 1 17 2 17 6 2 5 -21 23 -24 23 -5 1 6 7 1 16 -13 11 -19 14 -21 12 -6 -2
10 3 21 10 23 8 3 10 -2 6 -14 -3 -10 2 -7 10 7 11 19 15 21 16 8 0 -9 5 -20
11 -24 7 -4 9 0 5 14 -6 17 -3 20 19 18 14 -2 25 0 25 5 0 4 11 6 25 3 16 -3
25 0 25 8 0 8 3 9 8 3 9 -12 54 -16 46 -4 -3 5 0 9 5 9 6 0 11 -5 11 -12 0 -6
7 -3 15 8 10 13 14 14 15 5 0 -11 3 -11 17 0 15 12 16 12 10 -4 -4 -11 -3 -16
3 -12 6 3 10 12 10 20 0 8 4 16 9 19 4 3 6 -7 4 -22 l-5 -27 17 24 c14 18 19
20 26 10 7 -11 9 -10 9 5 0 15 3 16 14 7 11 -9 15 -8 20 6 6 15 9 15 16 3 5
-8 6 -18 4 -22 -3 -4 0 -8 6 -8 7 0 9 8 4 23 -3 12 -3 19 1 15 5 -4 15 -2 23
5 13 9 14 9 8 0 -5 -9 0 -13 14 -13 12 0 18 5 15 10 -3 6 -4 10 0 10 3 0 10
-10 16 -22 9 -21 9 -21 6 5 -4 27 -4 27 16 10 11 -10 17 -12 13 -5 -4 6 -2 12
3 12 6 0 11 -6 12 -12 0 -10 2 -10 5 -1 3 7 12 9 20 6 8 -3 14 -1 14 4 0 14
43 8 48 -6 3 -8 12 -2 23 16 10 15 19 23 19 16 0 -15 29 -10 40 7 6 10 9 9 11
-5 4 -18 5 -18 22 -1 9 10 17 13 17 7 0 -17 41 -6 56 14 8 11 14 13 14 6 0 -7
4 -9 10 -6 6 4 7 -1 4 -12 -5 -14 -4 -15 4 -4 5 8 23 14 40 15 17 0 28 4 25 9
-2 4 0 7 6 7 5 0 12 -8 14 -17 4 -14 5 -13 6 4 1 20 4 21 26 13 16 -6 27 -6
31 2 5 7 2 8 -7 3 -12 -7 -12 -5 -1 6 10 11 14 11 21 1 9 -14 32 -13 44 3 4 6
13 3 22 -9 15 -19 15 -19 15 3 0 20 3 22 45 17 26 -3 45 -1 45 4 0 5 14 8 30
6 17 -2 30 1 30 8 0 6 5 4 11 -4 8 -11 12 -12 16 -2 2 6 12 12 21 12 15 0 15
-2 2 -10 -11 -8 -8 -9 14 -6 16 3 33 11 38 18 6 10 8 10 8 1 0 -20 20 -15 21
5 1 16 2 16 6 0 2 -10 9 -18 15 -18 6 0 8 9 5 19 -3 14 -1 18 10 14 8 -3 12
-12 9 -20 -3 -8 -1 -11 5 -8 5 4 7 16 4 28 -6 20 -5 21 8 5 8 -10 17 -15 20
-11 4 3 7 1 7 -5 0 -5 -6 -13 -12 -15 -10 -4 -10 -6 -1 -6 15 -1 36 36 28 49
-3 6 1 7 10 4 9 -4 14 -13 11 -20 -3 -9 0 -11 11 -7 12 5 14 3 8 -7 -5 -9 -4
-11 4 -6 6 4 8 12 5 18 -5 7 -1 9 9 5 10 -3 17 -2 17 3 0 6 10 6 26 0 18 -7
23 -7 18 1 -4 7 0 9 14 5 11 -4 26 -1 33 6 17 16 59 19 59 4 0 -6 7 -2 15 8 8
11 15 15 15 9 0 -6 7 -13 14 -16 11 -4 13 -1 9 10 -4 11 -3 14 6 9 6 -4 19 -2
27 5 12 10 13 9 7 -7 -6 -16 -4 -17 8 -7 8 7 42 15 74 18 33 4 61 10 63 15 2
4 12 6 22 3 13 -3 20 0 20 8 0 11 2 11 10 -1 5 -8 12 -11 16 -7 4 4 17 -1 28
-10 20 -17 20 -17 7 0 -12 15 -11 17 3 17 10 0 15 4 12 9 -8 12 27 8 36 -4 5
-6 8 -5 8 3 0 7 4 11 9 7 5 -3 13 0 17 6 4 8 9 7 15 -2 6 -10 9 -11 9 -1 0 6
5 12 11 12 5 0 7 -4 4 -10 -3 -6 1 -7 9 -4 9 3 16 11 16 18 0 6 5 4 11 -4 8
-11 12 -12 16 -2 2 6 17 12 33 12 16 0 31 -6 33 -12 3 -7 6 -2 6 12 1 20 3 22
11 10 9 -13 10 -13 10 0 0 13 1 13 10 0 9 -13 10 -13 10 0 0 12 2 12 9 2 9
-14 19 -15 36 -3 6 4 25 7 43 6 26 -2 32 1 28 14 -4 11 -1 10 9 -3 14 -18 15
-18 15 -2 0 11 4 15 13 9 19 -12 37 -12 37 -1 0 6 6 5 15 -2 12 -10 15 -9 16
6 0 18 1 18 9 -1 7 -17 9 -17 9 -3 1 11 6 15 16 12 8 -4 23 0 32 7 12 10 15
10 9 2 -4 -7 -2 -13 3 -13 6 0 11 5 11 12 0 6 3 9 6 5 3 -3 17 -2 30 3 15 6
24 6 24 0 0 -6 8 -10 18 -10 13 0 14 2 3 9 -8 5 5 7 35 4 36 -3 45 -2 34 6
-19 14 -5 14 21 1 10 -6 19 -7 19 -2 0 4 10 8 23 9 53 2 112 15 119 26 4 7 8
8 8 2 0 -5 11 -10 25 -10 14 0 25 5 25 10 0 6 5 3 10 -5 7 -11 10 -11 10 -2 0
7 5 10 10 7 6 -3 10 -1 10 6 0 8 5 7 17 -2 14 -12 16 -12 8 0 -6 11 -3 13 13
9 14 -4 20 -2 15 5 -4 6 0 8 9 4 9 -3 20 -1 26 5 8 8 15 8 25 -1 16 -12 47 -5
47 11 0 6 9 8 20 5 14 -4 20 0 20 11 0 12 3 13 8 5 10 -16 128 -11 125 5 -4
17 1 15 23 -10 16 -19 16 -20 1 -9 -15 12 -17 12 -11 -3 10 -26 29 -12 27 20
l-1 29 11 -25 c7 -14 20 -26 30 -26z m52 26 c-3 -5 -12 -7 -20 -3 -21 7 -19
13 6 13 11 0 18 -4 14 -10z m46 -9 c-6 -10 -7 -22 -3 -27 4 -5 -2 -2 -13 6
-30 21 -32 24 -13 17 9 -3 19 0 22 9 3 8 8 14 11 14 3 0 1 -8 -4 -19z m-366
-21 c-3 -5 -12 -10 -18 -10 -7 0 -6 4 3 10 19 12 23 12 15 0z m315 -25 c-17
-46 -33 -63 -45 -52 -8 8 -7 15 7 29 10 10 16 23 13 29 -4 5 -1 8 7 7 7 -2 12
3 10 10 -1 8 2 11 7 7 7 -3 7 -15 1 -30z m-2555 -47 c-18 -35 -40 -84 -50
-110 -13 -36 -23 -48 -44 -52 -28 -6 -41 -8 -681 -95 -825 -113 -886 -121
-1029 -136 -271 -28 -328 -20 -510 78 l-116 61 100 13 c55 7 294 38 530 68
237 31 498 64 580 75 83 10 292 37 465 60 529 71 734 97 761 99 l27 1 -33 -62z
m2579 36 c3 -8 2 -12 -4 -9 -6 3 -10 10 -10 16 0 14 7 11 14 -7z m-1627 -150
c-3 -3 -12 -4 -19 -1 -8 3 -5 6 6 6 11 1 17 -2 13 -5z m1173 -42 c0 -1 -9 2
-20 8 -11 6 -20 15 -20 20 0 6 9 2 20 -7 11 -10 20 -19 20 -21z m-1783 -54
c-3 -8 -6 -5 -6 6 -1 11 2 17 5 13 3 -3 4 -12 1 -19z m1071 -43 c-3 -3 -9 2
-12 12 -6 14 -5 15 5 6 7 -7 10 -15 7 -18z m-1745 -52 c-3 -7 -6 -13 -8 -13
-2 0 -5 6 -8 13 -3 8 1 14 8 14 7 0 11 -6 8 -14z m1297 -3 c0 -5 -2 -10 -4
-10 -3 0 -8 5 -11 10 -3 6 -1 10 4 10 6 0 11 -4 11 -10z m-449 -77 c13 -16 12
-17 -3 -4 -10 7 -18 15 -18 17 0 8 8 3 21 -13z m-336 -23 c3 -5 -1 -10 -10
-10 -9 0 -13 5 -10 10 3 6 8 10 10 10 2 0 7 -4 10 -10z m1530 -100 c3 -6 -1
-7 -9 -4 -18 7 -21 14 -7 14 6 0 13 -4 16 -10z m-3415 -32 c0 -5 -5 -18 -11
-29 -7 -15 -7 -24 2 -35 8 -10 8 -14 0 -14 -6 0 -11 6 -12 13 0 9 -2 9 -6 0
-3 -10 -8 -9 -20 3 -13 12 -13 18 -3 27 10 9 11 9 6 0 -4 -7 -2 -13 3 -13 14
0 14 17 1 25 -16 10 7 45 25 39 8 -4 15 -10 15 -16z m2425 6 c-22 -8 -48 -17
-57 -20 -10 -4 -16 -10 -13 -14 6 -9 -56 -23 -107 -24 -26 -1 -38 3 -38 13 0
7 -6 11 -15 8 -8 -4 -17 -2 -20 3 -4 6 8 10 27 10 18 1 78 9 133 19 120 22
143 24 90 5z m-2499 -21 c-6 19 9 24 16 5 3 -7 -4 -21 -14 -30 -10 -10 -18
-15 -19 -10 0 4 -3 18 -5 32 -4 24 -4 24 12 5 13 -17 15 -17 10 -2z m743 -29
c-12 -15 -11 -16 11 -11 14 4 19 4 12 1 -6 -3 -10 -9 -7 -14 3 -4 -6 -7 -20
-6 -29 1 -31 8 -9 30 20 21 30 21 13 0z m-39 -4 c0 -5 -4 -10 -10 -10 -5 0
-10 5 -10 10 0 6 5 10 10 10 6 0 10 -4 10 -10z m-140 -25 c11 -13 10 -14 -4
-9 -9 3 -16 10 -16 15 0 13 6 11 20 -6z m35 5 c3 -5 1 -10 -4 -10 -6 0 -11 5
-11 10 0 6 2 10 4 10 3 0 8 -4 11 -10z m-110 -10 c3 -5 1 -10 -4 -10 -6 0 -11
5 -11 10 0 6 2 10 4 10 3 0 8 -4 11 -10z m-420 -22 c3 -3 -3 -8 -14 -11 -11
-2 -22 1 -24 7 -5 12 27 15 38 4z m76 -8 c14 8 17 7 14 -2 -3 -7 -20 -14 -38
-14 -17 -1 -26 1 -19 3 6 3 13 12 13 21 1 15 2 15 6 0 3 -14 8 -16 24 -8z
m111 -17 c-6 -2 -9 -10 -6 -15 4 -7 2 -8 -5 -4 -13 9 -5 26 12 25 9 0 8 -2 -1
-6z m3524 -94 c33 -20 44 -39 24 -39 -5 0 -2 -8 8 -18 20 -22 31 -19 12 3 -11
13 -10 14 3 10 8 -4 18 -14 21 -23 3 -9 10 -27 16 -39 7 -19 6 -23 -6 -23 -11
0 -15 6 -11 20 3 11 1 23 -4 26 -5 3 -9 -1 -9 -8 0 -7 -7 -3 -15 9 -10 14 -21
20 -32 16 -11 -4 -14 -3 -9 5 4 8 0 12 -11 13 -10 1 -31 2 -48 4 -16 1 -34 -1
-40 -5 -5 -4 -28 4 -49 17 -37 24 -39 26 -21 39 30 22 131 18 171 -7z m-181
-29 c3 -5 1 -10 -4 -10 -6 0 -11 5 -11 10 0 6 2 10 4 10 3 0 8 -4 11 -10z
m-3229 -160 c0 -13 -4 -14 -22 -6 -25 12 -23 25 4 23 10 0 18 -8 18 -17z
m3511 -2 c-3 -8 -6 -5 -6 6 -1 11 2 17 5 13 3 -3 4 -12 1 -19z m-3479 -13 c-3
-3 -9 2 -12 12 -6 14 -5 15 5 6 7 -7 10 -15 7 -18z m335 18 c-7 -2 -19 -2 -25
0 -7 3 -2 5 12 5 14 0 19 -2 13 -5z m2909 -40 c-6 -2 -10 -8 -8 -12 3 -4 -4
-7 -15 -7 -19 0 -19 1 -3 13 10 7 23 13 28 12 6 0 5 -3 -2 -6z m-3024 -292
c18 -13 43 -40 56 -60 28 -44 39 -74 26 -66 -6 3 -10 12 -10 20 0 13 -28 30
-43 26 -5 -1 -6 3 -2 9 3 6 12 7 18 4 7 -4 8 -3 4 2 -5 5 -13 10 -18 10 -5 1
-14 2 -20 3 -5 0 -7 6 -3 13 5 7 3 8 -7 3 -19 -13 -60 -15 -53 -4 3 6 -6 7
-23 4 -62 -13 -79 -12 -95 3 -22 19 -23 32 -3 32 8 0 14 3 14 8 -4 21 6 24 64
20 45 -3 72 -10 95 -27z m2849 -3 c-3 -8 -6 -5 -6 6 -1 11 2 17 5 13 3 -3 4
-12 1 -19z m29 -3 c1 -7 -4 -16 -12 -19 -11 -4 -12 -1 -5 13 6 10 8 21 6 25
-3 3 -2 4 2 1 4 -3 8 -12 9 -20z m264 -2 c0 -7 -10 -10 -27 -7 -16 2 -23 1
-17 -3 6 -5 11 -16 11 -26 0 -16 -1 -16 -20 0 -19 17 -20 17 -14 1 6 -17 -7
-24 -35 -19 -5 0 -8 -3 -8 -9 0 -5 -7 -7 -16 -3 -9 3 -13 12 -10 22 5 14 5 14
-6 1 -15 -17 -53 -27 -43 -11 3 7 0 8 -9 5 -10 -4 -16 -1 -16 7 0 7 -3 10 -6
6 -4 -3 -13 1 -21 9 -23 23 -9 27 31 10 21 -9 36 -11 36 -5 0 6 4 8 10 4 5 -3
25 1 45 9 25 11 35 12 35 3 0 -6 7 -4 17 6 19 19 63 19 63 0z m10 -39 c0 -2
-7 -4 -15 -4 -8 0 -15 4 -15 10 0 5 7 7 15 4 8 -4 15 -8 15 -10z m-3053 -126
c-3 -8 -6 -5 -6 6 -1 11 2 17 5 13 3 -3 4 -12 1 -19z m0 -110 c-3 -8 -6 -5 -6
6 -1 11 2 17 5 13 3 -3 4 -12 1 -19z m-120 -253 c0 -8 -4 -12 -9 -9 -5 3 -6
10 -3 15 9 13 12 11 12 -6z m-207 -24 c0 -10 3 -12 8 -5 9 13 130 16 138 2 12
-19 -14 -32 -32 -17 -12 9 -15 10 -10 2 4 -8 2 -13 -4 -13 -6 0 -8 -4 -5 -10
3 -5 1 -10 -4 -10 -6 0 -11 4 -11 8 0 4 -20 7 -45 6 -29 -1 -43 2 -38 9 4 6
-2 8 -15 5 -12 -4 -25 -1 -30 6 -4 6 -18 17 -32 23 -23 11 -23 12 9 6 22 -4
32 -2 28 4 -4 6 3 8 18 5 14 -2 25 -11 25 -21z m190 -1 c0 -5 -2 -10 -4 -10
-3 0 -8 5 -11 10 -3 6 -1 10 4 10 6 0 11 -4 11 -10z"/>
<path d="M9154 8353 c4 -7 16 -18 26 -23 16 -9 18 -8 14 5 -4 9 -9 13 -12 11
-3 -3 -12 0 -20 7 -13 9 -14 9 -8 0z"/>
<path d="M8140 7102 c0 -9 -21 -20 -50 -27 -10 -3 -157 -15 -215 -18 -72 -5
-131 -30 -139 -60 -9 -40 -19 -204 -13 -229 5 -20 12 -23 49 -23 128 3 192
-78 175 -221 -6 -53 -37 -92 -73 -90 -13 0 -24 5 -24 10 0 5 -8 2 -17 -6 -10
-9 -39 -19 -64 -22 -56 -8 -59 -15 -59 -135 l0 -84 78 8 c99 9 103 9 126 0 14
-6 17 -5 12 4 -6 8 2 7 22 -3 41 -21 42 -21 42 13 0 16 15 107 34 203 19 95
46 241 60 323 14 83 34 197 45 255 12 57 18 106 16 109 -3 2 -5 -1 -5 -7z"/>
<path d="M3446 7657 c3 -10 9 -15 12 -12 3 3 0 11 -7 18 -10 9 -11 8 -5 -6z"/>
<path d="M4152 7594 c10 -10 20 -15 24 -12 3 4 -5 12 -18 18 -22 12 -22 12 -6
-6z"/>
<path d="M2080 7591 c0 -6 4 -13 10 -16 6 -3 7 1 4 9 -7 18 -14 21 -14 7z"/>
<path d="M3510 7561 c0 -6 4 -12 8 -15 5 -3 9 1 9 9 0 8 -4 15 -9 15 -4 0 -8
-4 -8 -9z"/>
<path d="M3560 7556 c0 -2 8 -10 18 -17 15 -13 16 -12 3 4 -13 16 -21 21 -21
13z"/>
<path d="M3290 7542 c0 -5 7 -9 15 -9 8 0 12 4 9 9 -3 4 -9 8 -15 8 -5 0 -9
-4 -9 -8z"/>
<path d="M1875 7500 c-3 -5 -1 -10 4 -10 6 0 11 5 11 10 0 6 -2 10 -4 10 -3 0
-8 -4 -11 -10z"/>
<path d="M2310 7480 c-13 -8 -12 -10 3 -10 9 0 17 -5 17 -11 0 -8 4 -9 13 0 8
6 17 8 20 4 4 -3 7 -1 7 6 0 8 -6 11 -17 7 -9 -4 -19 -2 -22 3 -4 6 -12 6 -21
1z"/>
<path d="M6996 7001 c-20 -46 -26 -74 -26 -130 0 -66 2 -72 24 -80 34 -13 136
-20 136 -9 0 5 4 7 9 4 10 -7 43 28 35 37 -4 3 1 13 10 22 9 9 14 21 11 26 -4
5 -2 9 4 9 6 0 6 11 0 33 -6 17 -11 37 -12 42 -5 20 -49 75 -70 87 -12 6 -38
12 -58 14 -36 3 -37 2 -63 -55z"/>
<path d="M3731 7074 c0 -11 3 -14 6 -6 3 7 2 16 -1 19 -3 4 -6 -2 -5 -13z"/>
<path d="M4240 7045 c0 -8 4 -15 10 -15 5 0 7 7 4 15 -4 8 -8 15 -10 15 -2 0
-4 -7 -4 -15z"/>
<path d="M2760 6731 c0 -6 4 -13 10 -16 6 -3 7 1 4 9 -7 18 -14 21 -14 7z"/>
<path d="M5846 5292 c-37 -5 -52 -20 -65 -68 -12 -42 -15 -133 -5 -158 10 -26
158 -22 202 4 18 11 30 24 27 29 -3 5 0 11 6 13 14 5 14 82 -1 118 -19 46 -88
73 -164 62z"/>
<path d="M4750 4850 c-33 -34 -82 -145 -84 -189 l-1 -45 81 -41 c45 -22 88
-45 95 -51 8 -7 31 -22 53 -34 38 -21 39 -21 33 -1 -3 12 0 21 6 21 8 0 7 4
-2 9 -8 5 -9 11 -3 15 7 4 5 23 -5 53 -8 27 -16 57 -17 68 -1 11 -4 25 -7 30
-8 13 -20 64 -17 67 2 2 -6 17 -18 33 -11 17 -24 38 -27 48 -4 10 -11 15 -17
12 -5 -3 -10 0 -10 7 0 18 -42 16 -60 -2z"/>
<path d="M7820 4476 c0 -2 8 -10 18 -17 15 -13 16 -12 3 4 -13 16 -21 21 -21
13z"/>
<path d="M7796 4428 c3 -5 10 -6 15 -3 13 9 11 12 -6 12 -8 0 -12 -4 -9 -9z"/>
<path d="M7838 4433 c7 -3 16 -2 19 1 4 3 -2 6 -13 5 -11 0 -14 -3 -6 -6z"/>
<path d="M7800 4386 c0 -2 7 -7 16 -10 8 -3 12 -2 9 4 -6 10 -25 14 -25 6z"/>
<path d="M7550 4370 c-9 -6 -10 -10 -3 -10 6 0 15 5 18 10 8 12 4 12 -15 0z"/>
<path d="M7376 4348 c3 -5 10 -6 15 -3 13 9 11 12 -6 12 -8 0 -12 -4 -9 -9z"/>
<path d="M7220 4346 c0 -15 41 -26 58 -16 15 10 15 11 -4 7 -12 -2 -29 0 -38
5 -9 5 -16 7 -16 4z"/>
<path d="M6345 4300 c-17 -19 -19 -19 -31 -2 -7 9 -13 13 -13 7 0 -18 29 -49
49 -52 11 -1 20 1 20 6 0 6 -9 8 -20 6 -11 -2 -20 0 -20 4 0 13 26 32 33 24 4
-3 7 1 7 10 0 22 -3 21 -25 -3z"/>
<path d="M6490 4280 c0 -5 5 -10 11 -10 5 0 7 5 4 10 -3 6 -8 10 -11 10 -2 0
-4 -4 -4 -10z"/>
<path d="M6185 4270 c-3 -5 -1 -10 4 -10 6 0 11 5 11 10 0 6 -2 10 -4 10 -3 0
-8 -4 -11 -10z"/>
<path d="M7260 3100 c-9 -6 -10 -10 -3 -10 6 0 15 5 18 10 8 12 4 12 -15 0z"/>
<path d="M7910 3066 c0 -2 9 -6 20 -9 11 -3 18 -1 14 4 -5 9 -34 13 -34 5z"/>
<path d="M7621 3011 c-8 -5 -9 -11 -3 -15 5 -3 12 1 16 9 6 17 6 18 -13 6z"/>
<path d="M7180 2940 c8 -5 22 -9 30 -9 10 0 8 3 -5 9 -27 12 -43 12 -25 0z"/>
<path d="M6900 2900 c0 -5 5 -10 11 -10 5 0 7 5 4 10 -3 6 -8 10 -11 10 -2 0
-4 -4 -4 -10z"/>
<path d="M5705 2880 c3 -5 8 -10 11 -10 2 0 4 5 4 10 0 6 -5 10 -11 10 -5 0
-7 -4 -4 -10z"/>
<path d="M6700 2872 c0 -11 4 -23 8 -26 10 -6 9 30 -1 40 -4 4 -7 -2 -7 -14z"/>
<path d="M6549 2847 c23 -26 41 -27 41 -4 0 7 -4 6 -10 -3 -5 -8 -10 -10 -10
-5 0 6 -10 16 -22 24 -22 13 -22 13 1 -12z"/>
<path d="M6421 2847 c2 -1 13 -9 24 -17 19 -14 19 -14 6 3 -7 9 -18 17 -24 17
-6 0 -8 -1 -6 -3z"/>
<path d="M5967 2779 c7 -7 15 -10 18 -7 3 3 -2 9 -12 12 -14 6 -15 5 -6 -5z"/>
<path d="M5560 2736 c0 -2 7 -7 16 -10 8 -3 12 -2 9 4 -6 10 -25 14 -25 6z"/>
<path d="M5614 2725 c-10 -8 -14 -15 -8 -15 6 0 17 7 24 15 16 19 9 19 -16 0z"/>
<path d="M5010 2676 c0 -2 8 -10 18 -17 15 -13 16 -12 3 4 -13 16 -21 21 -21
13z"/>
<path d="M4656 2652 c-3 -5 1 -9 9 -9 8 0 12 4 9 9 -3 4 -7 8 -9 8 -2 0 -6 -4
-9 -8z"/>
<path d="M4947 2622 c4 -10 2 -13 -5 -8 -7 4 -12 3 -12 -3 0 -17 25 -18 38 -2
10 13 11 14 9 1 -2 -8 -2 -12 0 -7 3 4 9 5 14 1 5 -3 9 -1 9 4 0 6 -8 13 -17
17 -32 14 -42 13 -36 -3z"/>
<path d="M4685 2601 c-3 -5 -2 -12 3 -15 5 -3 9 1 9 9 0 17 -3 19 -12 6z"/>
<path d="M4576 2568 c3 -4 9 -8 15 -8 5 0 9 4 9 8 0 5 -7 9 -15 9 -8 0 -12 -4
-9 -9z"/>
<path d="M3886 2537 c3 -10 9 -15 12 -12 3 3 0 11 -7 18 -10 9 -11 8 -5 -6z"/>
<path d="M4090 2531 c0 -10 19 -25 25 -20 1 2 -3 10 -11 17 -8 7 -14 8 -14 3z"/>
<path d="M4139 2513 c-1 -5 -1 -11 0 -15 0 -4 -5 -5 -13 -2 -8 3 -17 1 -21 -5
-4 -7 4 -11 19 -11 14 0 28 5 31 10 3 6 1 10 -5 10 -6 0 -8 5 -5 10 3 6 4 10
1 10 -3 0 -7 -3 -7 -7z"/>
<path d="M3840 2580 c0 -5 5 -10 10 -10 6 0 10 5 10 10 0 6 -4 10 -10 10 -5 0
-10 -4 -10 -10z"/>
<path d="M4250 1831 c0 -10 19 -25 25 -20 1 2 -3 10 -11 17 -8 7 -14 8 -14 3z"/>
<path d="M4296 1818 c3 -5 10 -6 15 -3 13 9 11 12 -6 12 -8 0 -12 -4 -9 -9z"/>
<path d="M6447 8789 c7 -7 15 -10 18 -7 3 3 -2 9 -12 12 -14 6 -15 5 -6 -5z"/>
<path d="M9169 8668 c10 -14 18 -15 32 -7 23 12 24 16 4 16 -8 0 -15 -5 -15
-10 0 -5 -8 -3 -17 4 -16 13 -17 12 -4 -3z"/>
<path d="M9296 8642 c-3 -5 1 -9 9 -9 8 0 12 4 9 9 -3 4 -7 8 -9 8 -2 0 -6 -4
-9 -8z"/>
<path d="M9050 8611 c0 -5 5 -13 10 -16 6 -3 10 -2 10 4 0 5 -4 13 -10 16 -5
3 -10 2 -10 -4z"/>
<path d="M8037 3927 c-9 -23 8 -30 24 -10 8 9 9 14 2 10 -6 -4 -13 -2 -15 5
-3 8 -7 6 -11 -5z"/>
<path d="M7465 2700 c-16 -7 -17 -9 -3 -9 9 -1 20 4 23 9 7 11 7 11 -20 0z"/>
<path d="M4570 2190 c0 -5 5 -10 11 -10 5 0 7 5 4 10 -3 6 -8 10 -11 10 -2 0
-4 -4 -4 -10z"/>
<path d="M4754 2065 c8 -7 13 -14 11 -17 -3 -3 2 -11 12 -19 14 -11 15 -11 9
0 -5 8 -3 16 5 22 12 7 12 10 0 21 -10 10 -12 10 -7 1 4 -7 2 -13 -3 -13 -6 0
-11 4 -11 8 0 5 -7 9 -16 9 -15 0 -15 -1 0 -12z"/>
</g>
</svg>
